<?xml version="1.0" encoding="UTF-8"?><svg id="Layer_1" xmlns="http://www.w3.org/2000/svg" viewBox="0 0 40 34.8"><defs><style>.cls-1{fill:#fff;}.cls-2{fill:#005d30;}.cls-3{fill:#008f4b;}</style></defs><path class="cls-1" d="M40,20.55c-.52-3.35-1.03-7.64-1.55-10.99-1.07-.24-2.12-.39-3.16-.46C32.35,3.68,26.6,0,20,0,11.08,0,3.73,6.71,2.72,15.36c-.9-.08-1.8-.22-2.72-.43,.52,3.35,1.03,7.41,1.55,10.76,1.16,.26,2.3,.42,3.43,.49,3.02,5.15,8.62,8.62,15.02,8.62,8.69,0,15.89-6.37,17.19-14.69,.93,.08,1.86,.23,2.81,.44Z"/><circle class="cls-2" cx="20" cy="17.4" r="17.4" transform="translate(-2.52 3.41) rotate(-9.17)"/><circle class="cls-1" cx="20" cy="17.4" r="12.53" transform="translate(-4.73 7.85) rotate(-19.9)"/><path class="cls-3" d="M13.14,10.84c.02,.06,1.67-.06,2.66,1.01,0,0,.47,.42,.93,.52,0-.01-.63,.4-1.41,.33-.78-.04-1.72-.56-2.18-1.86Z"/><path class="cls-3" d="M15.33,10.36s1.39-.47,2.28,.46c0,0,.41,.34,.82,.4,0,.03-2.26,1.49-3.1-.87Z"/><path class="cls-3" d="M17.37,9.38s1.21-.56,2.01,.32c0,0,.37,.31,.75,.39-.01-.04-2.03,1.3-2.76-.71Z"/><path class="cls-3" d="M19.38,8.3s1.09-.41,1.84,.47c0,0,.34,.32,.69,.45-.02-.08-1.9,.81-2.53-.93Z"/><path class="cls-3" d="M21.49,7.54s1.03-.09,1.71,.82c0,0,.32,.34,.65,.55-.03-.09-1.82,.12-2.36-1.37Z"/><path class="cls-3" d="M13.7,9.97s1.57-.42,1.76-2.1c0,0,.15-.66,.45-1.12,0-.01-.67,.26-1.29,.73-.62,.5-1.2,1.2-.92,2.48Z"/><path class="cls-3" d="M15.86,9.39s1.33-.7,1.5-2.23c0,0,.13-.62,.4-1.04,0,0-2.43,.91-1.9,3.27Z"/><path class="cls-3" d="M17.91,8.44s1.17-.68,1.35-1.98c0,0,.12-.54,.38-.86-.02-.06-2.22,.65-1.73,2.84Z"/><path class="cls-3" d="M19.98,7.55s1.08-.44,1.28-1.45c0,0,.13-.42,.38-.63-.03-.09-2.1,.11-1.65,2.08Z"/><path class="cls-3" d="M22.18,7.14s1.04-.05,1.25-.76c0,0,.13-.28,.38-.36-.03-.11-2.02-.59-1.63,1.12Z"/><path class="cls-3" d="M11.15,10.03s.18-.01,.5,.03c.16,.02,.36,.06,.59,.08,.23,.03,.48,.04,.74,.04,.53,0,1.13-.09,1.75-.27,.62-.18,1.26-.44,1.88-.74,.63-.3,1.25-.63,1.83-.91,.29-.14,.58-.27,.85-.39,.27-.11,.54-.21,.78-.3,.49-.16,.91-.26,1.21-.31,.3-.06,.94-.11,.94-.1-.07,.04-.14,.08-.21,.13-.06,.05-.13,.09-.19,.14,0,0-.17,.02-.47,.09-.29,.07-.71,.18-1.19,.37-.24,.09-.5,.21-.77,.33-.27,.13-.55,.27-.84,.42-.58,.3-1.2,.65-1.82,.96-.62,.31-1.26,.59-1.87,.77-.62,.19-1.21,.28-1.75,.28-.27,0-.52-.01-.74-.04-.23-.03-.42-.06-.6-.11-.34-.11-.57-.25-.56-.25-.02-.08-.04-.15-.07-.23Z"/><path class="cls-3" d="M27.13,24.53c-.01-.06-1.67-.07-2.58-1.21,0,0-.44-.46-.89-.59,0,.01,.66-.35,1.43-.22,.77,.1,1.67,.69,2.03,2.02Z"/><path class="cls-3" d="M24.91,24.84s-1.42,.37-2.24-.63c0,0-.39-.37-.79-.47,0-.03,2.37-1.31,3.03,1.1Z"/><path class="cls-3" d="M22.8,25.66s-1.25,.47-1.98-.47c0,0-.35-.34-.71-.45,0,.04,2.13-1.14,2.7,.92Z"/><path class="cls-3" d="M20.71,26.59s-1.12,.32-1.8-.61c0,0-.32-.34-.65-.5,.02,.08,1.95-.66,2.45,1.12Z"/><path class="cls-3" d="M18.56,27.17s-1.03,.01-1.65-.95c0,0-.29-.37-.6-.6,.02,.09,1.82,.02,2.25,1.55Z"/><path class="cls-3" d="M26.51,25.36c-.01-.05-1.6,.3-1.91,1.96,0,0-.2,.65-.54,1.08,0,.01,.69-.2,1.35-.63,.66-.45,1.29-1.1,1.1-2.4Z"/><path class="cls-3" d="M24.31,25.77s-1.38,.6-1.66,2.11c0,0-.18,.61-.48,1,0,0,2.49-.72,2.14-3.11Z"/><path class="cls-3" d="M22.19,26.55s-1.22,.59-1.49,1.87c0,0-.16,.53-.45,.83,.01,.06,2.27-.48,1.94-2.7Z"/><path class="cls-3" d="M20.06,27.28s-1.11,.35-1.38,1.35c0,0-.16,.41-.42,.6,.02,.1,2.1,.05,1.81-1.95Z"/><path class="cls-3" d="M17.83,27.53s-1.04-.03-1.31,.67c0,0-.15,.27-.41,.33,.02,.11,1.97,.74,1.72-.99Z"/><path class="cls-3" d="M29.05,25.49s-.18,0-.5-.07c-.16-.03-.36-.09-.58-.13-.22-.04-.47-.08-.74-.1-.53-.04-1.14,0-1.77,.14-.63,.13-1.29,.34-1.93,.6-.65,.25-1.29,.53-1.9,.77-.3,.12-.6,.23-.88,.32-.28,.09-.55,.17-.8,.24-.5,.13-.92,.19-1.23,.21-.3,.04-.94,.04-.94,.03,.07-.04,.15-.07,.22-.11,.07-.04,.13-.08,.2-.13,0,0,.17,0,.47-.05,.3-.04,.72-.12,1.21-.27,.25-.07,.51-.17,.79-.27,.28-.1,.57-.22,.87-.35,.6-.26,1.24-.55,1.89-.82,.65-.26,1.3-.49,1.93-.63,.63-.14,1.23-.18,1.77-.15,.27,.02,.51,.05,.74,.09,.22,.04,.42,.09,.59,.16,.33,.13,.54,.3,.54,.29,.02,.08,.03,.16,.05,.23Z"/><path class="cls-3" d="M40,20.55c-13.59-3.05-24.86,8.2-38.45,5.15-.52-3.35-1.03-7.41-1.55-10.76,13.59,3.05,24.86-8.43,38.45-5.38,.52,3.35,1.03,7.64,1.55,10.99Z"/><path class="cls-1" d="M6.45,19.73c-.69,.03-1.38,.03-2.07,0-.04-.24-.07-.47-.11-.71-.07-.45-.13-.73-.19-.84-.06-.11-.16-.17-.31-.18-.13,0-.21,.03-.24,.13-.03,.09-.02,.34,.04,.74,.19,1.25,.38,2.49,.58,3.74,.05,.35,.11,.58,.18,.7,.06,.11,.16,.18,.3,.18,.15,0,.25-.05,.28-.17,.04-.12,.02-.37-.03-.73-.05-.31-.09-.62-.14-.92-.14,0-.28-.01-.42-.02-.06-.39-.12-.79-.18-1.18,.82,.05,1.63,.05,2.43,.01,.21,1.39,.43,2.79,.64,4.18-.43,.02-.86,.03-1.3,.02-.09-.19-.19-.37-.28-.56-.1,.24-.26,.41-.45,.53-.2,.11-.44,.16-.74,.14-.35-.03-.7-.14-1.03-.34-.33-.2-.6-.44-.8-.71-.2-.27-.34-.54-.42-.82-.08-.27-.16-.68-.25-1.22-.12-.77-.24-1.54-.36-2.31-.11-.74-.16-1.28-.12-1.6,.03-.32,.23-.59,.58-.82,.35-.23,.84-.31,1.47-.28,.61,.04,1.14,.16,1.57,.41,.44,.24,.74,.52,.91,.85,.17,.33,.31,.81,.41,1.45,.02,.11,.03,.22,.05,.34Z"/><path class="cls-1" d="M13.03,15.71c.4,2.6,.8,5.19,1.2,7.79-.58,.15-1.16,.29-1.75,.42-.27-1.75-.54-3.5-.81-5.26,.04,1.8,.07,3.6,.11,5.4-.42,.08-.83,.16-1.25,.23-.51-1.67-1.02-3.35-1.53-5.02,.26,1.71,.53,3.42,.79,5.14-.59,.08-1.19,.15-1.78,.19-.4-2.6-.8-5.19-1.2-7.79,.88-.07,1.76-.18,2.63-.32,.15,.46,.31,.99,.49,1.61,.2,.64,.39,1.29,.59,1.93-.03-1.24-.06-2.48-.1-3.72,.87-.17,1.74-.37,2.6-.6Z"/><path class="cls-1" d="M19.05,18.67c.12,.78,.19,1.34,.2,1.68,.01,.34-.05,.67-.2,1-.15,.33-.37,.62-.67,.87-.3,.25-.66,.44-1.09,.57-.41,.13-.78,.17-1.13,.13-.35-.04-.64-.17-.88-.39-.24-.22-.4-.48-.49-.79-.09-.31-.19-.87-.32-1.67-.07-.44-.14-.89-.2-1.33-.12-.78-.19-1.34-.2-1.68-.01-.34,.05-.66,.2-.99,.15-.32,.37-.6,.68-.84,.3-.24,.67-.43,1.1-.56,.41-.13,.78-.17,1.13-.14,.34,.03,.64,.15,.88,.36,.24,.21,.4,.47,.49,.78,.09,.31,.19,.86,.32,1.67,.07,.44,.14,.89,.21,1.33Zm-2.37-1.92c-.06-.36-.11-.59-.17-.68-.05-.09-.14-.11-.27-.08-.1,.03-.18,.1-.22,.2-.04,.1-.03,.35,.03,.75,.19,1.21,.37,2.42,.56,3.64,.07,.45,.13,.73,.18,.82,.05,.09,.14,.12,.28,.08,.13-.04,.21-.13,.23-.26,.02-.13,0-.43-.08-.89-.18-1.19-.37-2.39-.55-3.58Z"/><path class="cls-1" d="M20.78,13.31c1.11-.36,2.23-.72,3.35-1.04,.08,.52,.16,1.04,.24,1.56-.46,.13-.92,.27-1.37,.41,.08,.49,.15,.98,.23,1.48,.41-.13,.82-.25,1.22-.37,.08,.49,.15,.99,.23,1.48-.41,.12-.82,.24-1.22,.37,.17,1.09,.34,2.18,.5,3.27-.66,.2-1.32,.42-1.98,.63-.4-2.6-.8-5.19-1.2-7.79Z"/><path class="cls-1" d="M24.61,12.13c.47-.13,.94-.26,1.41-.38,.94-.24,1.59-.34,1.93-.34,.35,0,.65,.14,.91,.4,.26,.26,.44,.73,.54,1.39,.09,.61,.08,1.03-.04,1.26-.12,.24-.39,.42-.83,.55,.41,.02,.7,.1,.86,.24,.16,.14,.27,.28,.33,.41,.06,.13,.13,.51,.23,1.14,.11,.68,.21,1.37,.32,2.05-.62,.11-1.25,.24-1.87,.38-.13-.86-.27-1.73-.4-2.59-.06-.42-.14-.67-.22-.75-.08-.08-.26-.1-.53-.03,.18,1.17,.36,2.34,.54,3.51-.67,.16-1.33,.34-1.99,.53-.4-2.6-.8-5.19-1.2-7.79Zm2.2,.81c.09,.58,.18,1.15,.27,1.73,.22-.05,.38-.12,.46-.21,.08-.08,.09-.3,.04-.64-.02-.14-.04-.29-.07-.43-.04-.25-.11-.4-.21-.46-.1-.06-.26-.06-.5,0Z"/><path class="cls-1" d="M29.86,10.96c1.13-.17,2.26-.28,3.41-.31,.08,.52,.16,1.04,.24,1.56-.46,.01-.92,.04-1.37,.07,.08,.49,.15,.98,.23,1.48,.43-.03,.85-.06,1.28-.07,.08,.49,.15,.99,.23,1.48-.43,.01-.86,.04-1.28,.07,.09,.57,.18,1.14,.26,1.71,.5-.04,1-.06,1.51-.07,.08,.52,.16,1.04,.24,1.56-1.19,.02-2.38,.13-3.55,.31-.4-2.6-.8-5.19-1.2-7.79Z"/><path class="cls-1" d="M34,10.64c1.15,0,2.32,.1,3.5,.29,.08,.52,.16,1.04,.24,1.56-.47-.08-.94-.14-1.41-.18,.08,.49,.15,.98,.23,1.48,.44,.04,.88,.1,1.32,.17,.08,.49,.15,.99,.23,1.48-.44-.07-.88-.13-1.32-.17,.09,.57,.18,1.14,.26,1.71,.52,.05,1.03,.12,1.55,.21,.08,.52,.16,1.04,.24,1.56-1.23-.21-2.44-.31-3.64-.31-.4-2.6-.8-5.19-1.2-7.79Z"/><path class="cls-1" d="M14.31,29.81l-1.22,2.41-.6-.3,.65-1.29c.09-.19,.15-.3,.16-.34,.01-.04,0-.08-.03-.12-.03-.04-.12-.09-.25-.16l-.06-.03,.14-.28c.32,.08,.61,.07,.86-.05l.35,.18Z"/><path class="cls-1" d="M15.73,31.34l-.31,.85c-.07,.19-.13,.33-.19,.41-.05,.08-.13,.15-.22,.2-.09,.05-.19,.08-.3,.08-.11,0-.22-.02-.33-.06-.15-.06-.27-.12-.36-.19-.09-.07-.15-.16-.18-.25-.03-.1-.05-.19-.04-.28,0-.09,.04-.23,.11-.4l.32-.88c.09-.23,.17-.4,.25-.5,.08-.1,.2-.16,.34-.19,.15-.03,.3,0,.47,.05,.14,.05,.25,.12,.35,.21,.09,.09,.15,.18,.18,.27,.03,.09,.04,.18,.02,.28-.01,.09-.05,.24-.13,.43Zm-.55-.45c.05-.13,.07-.22,.07-.26,0-.04-.02-.07-.07-.08-.05-.02-.08-.01-.11,.02-.03,.03-.07,.11-.11,.24l-.45,1.24c-.05,.15-.08,.24-.08,.27,0,.04,.03,.06,.07,.08,.05,.02,.08,.01,.11-.02s.06-.11,.11-.23l.46-1.26Z"/><path class="cls-1" d="M17.64,31.79l-.19,.88c-.04,.2-.09,.34-.13,.43-.04,.09-.11,.16-.19,.23-.09,.06-.18,.1-.29,.12-.1,.01-.22,0-.34-.02-.16-.03-.28-.08-.38-.14-.1-.06-.17-.13-.21-.22-.04-.09-.07-.18-.08-.27,0-.09,0-.23,.05-.41l.2-.92c.05-.24,.11-.42,.18-.53,.07-.11,.17-.19,.31-.24,.14-.05,.3-.05,.48,0,.14,.03,.27,.09,.37,.16,.1,.08,.17,.16,.22,.24,.04,.09,.06,.18,.06,.27,0,.1-.02,.24-.07,.44Zm-.61-.37c.03-.14,.04-.23,.04-.27,0-.04-.03-.06-.08-.07-.05-.01-.09,0-.11,.03-.02,.03-.05,.12-.08,.25l-.28,1.29c-.03,.15-.05,.25-.04,.28,0,.03,.04,.06,.08,.07,.05,.01,.08,0,.11-.03,.02-.03,.05-.12,.08-.24l.29-1.31Z"/><path class="cls-1" d="M18.98,31.47l-.03,.46c0,.12-.02,.21-.05,.27-.03,.06-.08,.11-.16,.15-.08,.04-.18,.06-.3,.05-.14,0-.25-.04-.32-.08-.07-.05-.12-.1-.14-.16-.02-.06-.03-.15-.02-.26l.03-.48c0-.13,.03-.23,.06-.29,.03-.06,.09-.11,.17-.15,.08-.04,.18-.05,.29-.04,.13,0,.23,.04,.3,.08,.08,.05,.13,.11,.15,.17,.02,.06,.03,.16,.02,.29Zm.82-.46l-1.23,2.73-.26-.02,1.23-2.73,.25,.02Zm-1.23,.32c0-.07,0-.12,0-.13,0-.02-.03-.03-.06-.03-.03,0-.05,0-.06,.02,0,.02-.02,.06-.02,.13l-.04,.68c0,.08,0,.12,0,.14,0,.02,.03,.03,.06,.03,.03,0,.05,0,.06-.02,0-.02,.02-.06,.02-.12l.04-.69Zm1.59,1.52l-.03,.46c0,.12-.02,.21-.05,.27-.03,.06-.08,.11-.16,.15-.08,.04-.18,.06-.3,.05-.14,0-.25-.04-.32-.09-.07-.05-.12-.1-.14-.16-.02-.06-.03-.15-.02-.26l.03-.49c0-.13,.03-.23,.06-.29,.03-.06,.09-.11,.17-.15,.08-.04,.18-.05,.29-.04,.13,0,.23,.04,.31,.09,.08,.05,.13,.11,.15,.17,.02,.06,.03,.16,.02,.29Zm-.42-.14c0-.07,0-.12,0-.13,0-.02-.03-.03-.06-.03-.03,0-.05,0-.06,.02,0,.02-.02,.06-.02,.13l-.04,.68c0,.08,0,.12,0,.14,0,.02,.03,.02,.06,.03,.03,0,.05,0,.06-.02,0-.02,.02-.06,.02-.12l.04-.69Z"/><polygon class="cls-1" points="22.62 30.81 22.99 33.49 22.38 33.57 21.85 32.4 22.01 33.62 21.43 33.7 21.07 31.02 21.65 30.94 22.21 32.1 22.04 30.89 22.62 30.81"/><path class="cls-1" d="M24.08,30.43l1.1,2.5-.69,.19-.16-.46-.24,.07,.09,.48-.7,.19-.37-2.7,.98-.27Zm.1,1.77c-.11-.29-.25-.64-.4-1.07,.07,.52,.12,.89,.17,1.13l.23-.06Z"/><polygon class="cls-1" points="25.71 29.82 25.91 30.32 25.52 30.47 26.32 32.48 25.66 32.74 24.87 30.73 24.48 30.88 24.29 30.38 25.71 29.82"/><path class="cls-1" d="M27.26,28.98l.87,1.58c.1,.18,.16,.31,.19,.39,.03,.08,.03,.17,.02,.28-.02,.11-.06,.21-.13,.3-.07,.09-.17,.17-.3,.24-.14,.08-.28,.12-.41,.14-.13,.01-.25,0-.34-.05-.09-.05-.17-.11-.23-.19-.06-.08-.16-.25-.3-.52l-.77-1.4,.62-.34,.98,1.77c.06,.1,.1,.17,.13,.19,.03,.02,.06,.02,.09,0,.04-.02,.06-.05,.05-.09,0-.04-.04-.12-.11-.23l-.96-1.74,.62-.34Z"/><path class="cls-1" d="M27.5,28.83l.4-.3c.27-.2,.45-.32,.56-.37,.11-.05,.23-.05,.35-.01,.12,.04,.25,.15,.39,.34,.13,.17,.19,.3,.19,.39,0,.09-.06,.19-.17,.29,.13-.06,.23-.07,.31-.06,.07,.02,.13,.04,.17,.07,.04,.03,.12,.14,.25,.31l.42,.57-.52,.39-.53-.72c-.09-.12-.15-.18-.19-.2-.04-.01-.1,0-.17,.07l.73,.98-.56,.42-1.61-2.17Zm.84-.05l.36,.48c.06-.05,.1-.09,.11-.13s-.02-.1-.09-.2l-.09-.12c-.05-.07-.1-.1-.14-.11-.04,0-.09,.02-.16,.07Z"/><path class="cls-1" d="M29.83,26.87l2.17,1.66-.52,.5-.36-.32-.18,.17,.31,.38-.52,.5-1.62-2.19,.73-.71Zm.94,1.51c-.24-.2-.53-.44-.87-.74,.31,.42,.54,.72,.69,.91l.17-.17Z"/><polygon class="cls-1" points="30.64 25.94 32.3 27.32 32.58 26.99 32.99 27.33 32.27 28.2 30.19 26.48 30.64 25.94"/><path class="cls-1" d="M6.94,7.57l2.21,1.56-.39,.55-1.18-.84c-.17-.12-.28-.19-.32-.21-.04-.02-.08-.01-.13,.01-.04,.02-.11,.1-.2,.23l-.04,.05-.26-.18c.13-.31,.16-.59,.08-.86l.23-.32Z"/><path class="cls-1" d="M9.03,6.53l.67,.6c.15,.14,.26,.24,.31,.32,.05,.08,.09,.17,.1,.28,.01,.11,0,.21-.04,.31-.04,.1-.1,.19-.18,.28-.11,.12-.21,.21-.31,.26-.1,.05-.2,.08-.3,.07-.1,0-.19-.03-.28-.07-.08-.04-.2-.12-.34-.25l-.7-.63c-.18-.17-.31-.3-.37-.42-.06-.11-.08-.24-.05-.39,.03-.14,.1-.28,.23-.42,.1-.11,.21-.19,.32-.24,.12-.05,.22-.08,.32-.07,.09,0,.18,.03,.27,.08,.08,.05,.2,.14,.35,.27Zm-.62,.35c-.11-.1-.18-.15-.21-.16-.04-.01-.07,0-.11,.04-.03,.04-.04,.07-.02,.11,.02,.04,.08,.1,.18,.2l.98,.88c.12,.1,.19,.16,.23,.17,.03,.01,.07,0,.1-.04,.03-.04,.04-.07,.02-.11-.02-.04-.08-.1-.17-.19l-1-.89Z"/><path class="cls-1" d="M10.58,5.16l.59,.68c.13,.16,.22,.28,.27,.36,.04,.09,.07,.18,.07,.29,0,.11-.03,.21-.08,.3-.05,.09-.12,.18-.22,.26-.12,.1-.24,.18-.34,.22-.11,.04-.21,.05-.31,.03-.1-.02-.19-.05-.26-.1-.08-.05-.18-.15-.3-.29l-.61-.72c-.16-.19-.27-.34-.31-.46-.05-.12-.05-.25,0-.39,.05-.14,.14-.27,.28-.39,.11-.1,.23-.16,.35-.2,.12-.04,.23-.05,.32-.03,.09,.02,.18,.06,.25,.11,.08,.06,.18,.16,.31,.32Zm-.66,.27c-.09-.11-.16-.17-.19-.19-.03-.02-.07-.01-.11,.02-.04,.03-.05,.07-.04,.11,.01,.04,.06,.11,.15,.22l.86,1c.1,.12,.17,.19,.2,.2,.03,.01,.07,0,.11-.03,.04-.03,.05-.07,.04-.11-.01-.04-.06-.11-.15-.21l-.87-1.02Z"/><path class="cls-1" d="M11.55,3.96l.24,.39c.06,.1,.1,.19,.11,.25,.01,.06,0,.13-.04,.21-.04,.08-.11,.15-.22,.21-.12,.07-.22,.11-.31,.12-.09,0-.16-.01-.21-.05-.05-.04-.11-.1-.17-.2l-.26-.41c-.07-.11-.11-.2-.12-.27-.01-.07,0-.14,.05-.22s.12-.14,.21-.2c.11-.07,.21-.1,.3-.11,.09,0,.16,.01,.22,.05,.06,.04,.12,.11,.19,.22Zm-.43,.12c-.04-.06-.06-.1-.08-.11-.01-.01-.04,0-.06,0-.03,.02-.04,.03-.04,.05,0,.02,.02,.06,.06,.12l.36,.58c.04,.07,.07,.1,.08,.11,.01,0,.04,0,.06-.01,.02-.02,.04-.03,.03-.05,0-.02-.02-.06-.06-.11l-.36-.59Zm.82-.97l.58,2.94-.22,.14-.57-2.94,.22-.13Zm1.35,1.3l.24,.4c.06,.1,.1,.19,.11,.25,.01,.06,0,.13-.04,.21-.04,.08-.11,.15-.22,.21-.12,.07-.22,.11-.31,.12-.09,0-.16-.01-.21-.05-.05-.04-.11-.1-.17-.2l-.26-.41c-.07-.11-.11-.2-.12-.27-.01-.07,0-.14,.05-.22,.04-.08,.12-.14,.21-.2,.11-.07,.21-.1,.3-.11,.09,0,.16,.01,.22,.05,.05,.04,.12,.11,.18,.22Zm-.42,.13c-.04-.06-.06-.1-.08-.11-.02-.01-.04,0-.06,0-.03,.02-.04,.03-.03,.05,0,.02,.02,.06,.06,.12l.36,.58c.04,.07,.07,.1,.08,.11,.01,0,.04,0,.06-.01,.03-.02,.04-.03,.03-.05,0-.02-.02-.06-.06-.11l-.36-.59Z"/><polygon class="cls-1" points="15.07 1.8 16 4.33 15.43 4.54 14.66 3.52 15.08 4.67 14.53 4.88 13.6 2.34 14.15 2.14 14.94 3.14 14.52 2 15.07 1.8"/><path class="cls-1" d="M17.03,1.32l.96,2.56-.7,.15-.14-.47-.25,.05,.06,.48-.71,.15-.22-2.72,.99-.21Zm0,1.78c-.1-.29-.21-.65-.34-1.09,.04,.52,.07,.9,.11,1.14l.24-.05Z"/><polygon class="cls-1" points="19.22 1.06 19.27 1.6 18.86 1.64 19.06 3.79 18.36 3.85 18.16 1.7 17.75 1.74 17.7 1.2 19.22 1.06"/><path class="cls-1" d="M21.32,1.09l-.06,1.8c0,.2-.02,.35-.03,.43-.02,.08-.06,.17-.13,.25-.07,.09-.16,.15-.27,.19-.11,.04-.24,.06-.38,.06-.16,0-.3-.04-.42-.09-.12-.06-.21-.13-.27-.22-.06-.09-.09-.18-.1-.27,0-.1,0-.3,0-.6l.05-1.6,.7,.02-.06,2.02c0,.12,0,.19,.01,.23,.01,.03,.04,.05,.08,.05,.04,0,.07-.02,.09-.05,.01-.04,.02-.12,.03-.26l.06-1.99,.7,.02Z"/><path class="cls-1" d="M21.96,1.16l.49,.08c.33,.05,.55,.1,.66,.15,.11,.04,.19,.12,.25,.24s.06,.29,.03,.51c-.03,.21-.08,.34-.15,.4-.06,.06-.17,.09-.33,.08,.13,.06,.22,.12,.25,.18,.04,.06,.06,.12,.06,.17,0,.05-.01,.18-.05,.4l-.12,.7-.64-.11,.15-.88c.02-.14,.03-.23,.01-.27-.02-.04-.07-.06-.17-.08l-.2,1.2-.69-.12,.45-2.66Zm.62,.57l-.1,.59c.08,.01,.13,.01,.17,0,.03-.02,.06-.08,.08-.2l.02-.15c.01-.08,0-.14-.02-.17-.03-.03-.08-.05-.16-.07Z"/><path class="cls-1" d="M25.44,1.98l-.44,2.69-.68-.22,.11-.47-.24-.08-.19,.45-.69-.22,1.16-2.46,.97,.31Zm-.88,1.54c.06-.3,.14-.67,.24-1.11-.23,.47-.38,.82-.47,1.04l.23,.07Z"/><polygon class="cls-1" points="27 2.63 26.1 4.59 26.48 4.77 26.26 5.26 25.23 4.79 26.36 2.34 27 2.63"/></svg>