<?xml version="1.0" encoding="utf-8"?>
<!-- Generator: Adobe Illustrator 26.5.0, SVG Export Plug-In . SVG Version: 6.00 Build 0)  -->
<svg version="1.1" id="Layer_1" xmlns="http://www.w3.org/2000/svg" xmlns:xlink="http://www.w3.org/1999/xlink" x="0px" y="0px"
	 viewBox="0 0 40 40" style="enable-background:new 0 0 40 40;" xml:space="preserve">
<style type="text/css">
	.st0{fill:#FFFFFF;}
	.st1{fill:#42451B;}
	.st2{fill-rule:evenodd;clip-rule:evenodd;fill:#42451B;}
	.st3{fill-rule:evenodd;clip-rule:evenodd;fill:#FFFFFF;}
</style>
<g>
	<path class="st0" d="M39.6,20c0-0.7,0.4-1.3,0.4-2c-0.1-0.7-0.6-1.2-0.8-1.9c-0.1-0.6,0.2-1.4,0-2c-0.2-0.6-0.9-1.1-1.1-1.7
		c-0.2-0.6-0.1-1.4-0.4-2c-0.3-0.6-1.1-0.9-1.4-1.4c-0.4-0.5-0.4-1.3-0.8-1.9c-0.4-0.5-1.2-0.7-1.7-1.1c-0.5-0.5-0.6-1.3-1.1-1.7
		c-0.5-0.4-1.3-0.4-1.9-0.8c-0.5-0.4-0.8-1.1-1.4-1.4c-0.6-0.3-1.4-0.2-2-0.4c-0.6-0.2-1-0.9-1.7-1.1c-0.6-0.2-1.4,0.1-2,0
		C23.2,0.6,22.6,0.1,22,0c-0.6-0.1-1.3,0.4-2,0.4c-0.7,0-1.3-0.4-2-0.4c-0.7,0.1-1.2,0.6-1.9,0.8c-0.6,0.1-1.4-0.2-2,0
		c-0.6,0.2-1.1,0.9-1.7,1.1c-0.6,0.2-1.4,0.1-2,0.4C10,2.6,9.6,3.3,9.1,3.7C8.6,4.1,7.8,4.1,7.3,4.5C6.8,4.9,6.6,5.7,6.1,6.1
		C5.7,6.6,4.9,6.8,4.5,7.3C4.1,7.8,4.1,8.6,3.7,9.1C3.3,9.6,2.6,10,2.3,10.5c-0.3,0.6-0.2,1.4-0.4,2c-0.2,0.6-0.9,1-1.1,1.7
		c-0.2,0.6,0.1,1.4,0,2C0.6,16.8,0.1,17.4,0,18c-0.1,0.6,0.4,1.3,0.4,2c0,0.7-0.4,1.3-0.4,2c0.1,0.7,0.6,1.2,0.8,1.9
		c0.1,0.6-0.2,1.4,0,2c0.2,0.6,0.9,1.1,1.1,1.7c0.2,0.6,0.1,1.4,0.4,2c0.3,0.6,1.1,0.9,1.4,1.4c0.4,0.5,0.4,1.3,0.8,1.8
		c0.4,0.5,1.2,0.7,1.7,1.1c0.5,0.5,0.6,1.3,1.1,1.7c0.5,0.4,1.3,0.4,1.9,0.8c0.5,0.4,0.8,1.1,1.4,1.4c0.6,0.3,1.4,0.2,2,0.4
		c0.6,0.2,1,0.9,1.7,1.1c0.6,0.2,1.4-0.1,2,0c0.6,0.1,1.2,0.7,1.9,0.8c0.6,0.1,1.3-0.4,2-0.4c0.7,0,1.3,0.4,2,0.4
		c0.7-0.1,1.2-0.6,1.9-0.8c0.6-0.1,1.4,0.2,2,0c0.6-0.2,1.1-0.9,1.7-1.1c0.6-0.2,1.4-0.1,2-0.4c0.6-0.3,0.9-1.1,1.4-1.4
		c0.5-0.4,1.3-0.4,1.8-0.8c0.5-0.4,0.7-1.2,1.1-1.7c0.5-0.5,1.3-0.6,1.7-1.1c0.4-0.5,0.4-1.3,0.8-1.9c0.4-0.5,1.1-0.8,1.4-1.4
		c0.3-0.6,0.2-1.4,0.4-2c0.2-0.6,0.9-1,1.1-1.7c0.2-0.6-0.1-1.4,0-2c0.1-0.6,0.7-1.2,0.8-1.9C40.1,21.3,39.6,20.7,39.6,20z"/>
	<g>
		<path class="st1" d="M8.1,32.5c0,0,0.2,0,0.4,0c0.3,0,0.6-0.1,0.9-0.1c0.2,0,0.3,0,0.5,0c0.2,0,0.3,0,0.4,0c0.3,0,0.4,0,0.4,0
			s-0.2,0-0.4,0.1c-0.1,0-0.3,0-0.4,0.1c-0.2,0-0.3,0.1-0.5,0.1c-0.3,0.1-0.7,0.1-0.9,0.2c-0.3,0-0.4,0.1-0.4,0.1L8.1,32.5z"/>
		<path class="st1" d="M16.2,16.6c-0.4-0.1,1.4,0.1,2.3,0.3c-0.9-0.2-3-0.6-2.6-0.6c-0.4,0,0.4-0.2,1.3-0.2c-1,0-1.4-0.2-1-0.2
			c-0.4,0,0.5-0.2,1.4-0.4c-0.9,0.2-1.9,0.2-1.5,0.1c-0.4,0.1,0.5-0.5,1.4-0.9c-0.9,0.4-1.8,0.8-1.5,0.6c-0.3,0.2,0.1-0.3,0.9-0.9
			c-0.8,0.6-1.4,0.9-1.1,0.6c-0.3,0.2,0.3-0.8,1-1.5c-0.6,0.7-1.4,1.6-1.2,1.3c-0.2,0.3,0.2-0.6,0.7-1.4c-0.5,0.8-1.1,1.6-1,1.3
			c-0.2,0.3,0-0.8,0.3-1.7c-0.3,0.9-0.7,2-0.6,1.6C15,15.1,14.9,14,15,13.1c-0.1,0.9-0.3,2-0.3,1.6c0,0.4-0.2-0.8-0.3-1.7
			c0.1,0.9,0.1,2.1,0,1.8c0.1,0.4-0.3-0.4-0.6-1.3c0.3,0.9,0.4,1.8,0.3,1.4c0.2,0.3-0.5-0.5-0.9-1.3c0.5,0.8,0.9,1.8,0.7,1.5
			c0.2,0.3-0.4-0.2-1.1-0.9c0.6,0.7,1.1,1.4,0.8,1.1c0.3,0.2-0.7-0.2-1.5-0.8c0.8,0.5,1.6,1.2,1.3,1c0.3,0.2-0.4,0-1.3-0.4
			c0.9,0.4,1.5,0.8,1.2,0.7c0.4,0.1-0.1,0.3-1.1,0.1c0.9,0.2,1.6,0.4,1.2,0.3c0.4,0-1.5,0.1-2.5,0.1c1,0,3.1,0,2.7,0.1
			c0.1,0-0.4,0-0.6,0.1C14,16.5,15,16.5,16.2,16.6C16.1,16.6,16.1,16.6,16.2,16.6z"/>
		<path class="st2" d="M15.9,12.3c0,0-0.1,0-0.1,0c-0.1,0-0.1,0-0.1,0c0,0-0.1,0-0.1,0c0,0,0,0,0,0c0,0,0,0,0,0c0,0,0,0,0,0
			c0,0,0,0,0,0c0,0,0,0,0,0c0,0,0,0,0,0c0,0,0,0,0,0c0,0,0,0,0,0c0,0-0.1,0-0.1,0c0,0,0,0-0.1,0c-0.1,0-0.1,0-0.2,0c0,0,0,0,0,0
			c0,0,0.1,0,0.1,0c0.1,0,0.1,0,0.2,0c0,0,0,0,0,0c0,0,0.1,0,0.1,0c0,0,0,0,0,0c0,0,0,0,0,0c0,0,0,0,0,0c0,0,0,0,0,0
			c0,0,0.1,0,0.1,0c0,0,0,0,0.1,0C15.8,12.3,15.8,12.3,15.9,12.3C15.9,12.3,15.9,12.3,15.9,12.3z"/>
		<path class="st1" d="M22.8,18.9C22.8,18.9,22.8,18.9,22.8,18.9C22.8,18.9,22.8,18.9,22.8,18.9z"/>
		<path class="st1" d="M22.8,18.9C22.8,18.9,22.8,18.9,22.8,18.9C22.9,18.8,22.9,18.7,22.8,18.9z"/>
		<rect x="13.7" y="15.6" class="st0" width="0.1" height="0.6"/>
		<rect x="15.8" y="15.6" class="st0" width="0.1" height="0.6"/>
		<polygon class="st1" points="14.5,14.5 14.5,14 14.6,14.4 		"/>
		<polygon class="st0" points="13.6,15.3 13.3,15.2 13.6,15.4 13.6,15.3 		"/>
		<polygon class="st0" points="13.6,15.6 13.2,15.5 13.6,15.7 13.6,15.6 		"/>
		<polygon class="st0" points="13.6,16 13,16 13.6,16.1 		"/>
		<polygon class="st0" points="14,14.8 13.7,14.5 13.9,14.9 14,14.8 		"/>
		<polygon class="st0" points="14.3,14.7 14.1,14.3 14.2,14.7 14.3,14.7 		"/>
		<polygon class="st0" points="14.9,14.4 14.9,14 14.8,14.4 14.9,14.4 		"/>
		<polygon class="st0" points="14.6,14.5 14.5,14.1 14.5,14.6 14.6,14.5 		"/>
		<polygon class="st0" points="15.6,14.8 15.8,14.3 15.5,14.7 15.6,14.8 		"/>
		<polygon class="st0" points="15.3,14.7 15.3,14.2 15.2,14.7 15.3,14.7 		"/>
		<polygon class="st0" points="16,15.3 16.3,15 15.9,15.2 16,15.3 		"/>
		<g>
			<rect x="17.1" y="12" class="st1" width="5.3" height="0.4"/>
			<rect x="17.2" y="12.1" class="st0" width="5.1" height="0.1"/>
			<polygon class="st1" points="17.9,16.5 17.3,16.5 18.3,10.2 18.9,10.2 			"/>
			<polygon class="st1" points="21.5,16 22,16 21.1,10.2 20.5,10.2 			"/>
			<polygon class="st1" points="19.5,10.8 19.5,16.5 19.9,16.4 19.9,10.8 			"/>
			<rect x="19.7" y="10.9" class="st3" width="0.1" height="5.5"/>
			<path class="st1" d="M19.9,9c-1.3,0-2.3-1-2.3-2.3c0-1.3,1-2.3,2.3-2.3c1.3,0,2.3,1,2.3,2.3C22.2,7.9,21.1,9,19.9,9z M19.9,4.5
				c-1.2,0-2.2,1-2.2,2.1c0,1.2,1,2.1,2.2,2.1c1.2,0,2.2-1,2.2-2.1C22.1,5.5,21.1,4.5,19.9,4.5z"/>
			<g>
				<g>
					<g>
						<path class="st0" d="M19.6,6H20l0.6-3.2c0,0-0.6,0-0.8,0c-0.2,0-0.7,0-0.7,0L19.6,6z"/>
						<path class="st1" d="M20.1,6.1h-0.6l-0.6-3.4l0.1,0c0,0,0.5,0,0.7,0c0.2,0,0.8,0,0.8,0l0.1,0L20.1,6.1z M19.7,5.9h0.2l0.5-3
							c-0.2,0-0.5,0-0.7,0c-0.1,0-0.5,0-0.6,0L19.7,5.9z"/>
					</g>
					<g>
						<g>
							<polygon class="st1" points="19.6,5.7 19.8,5.8 19.6,5.8 							"/>
						</g>
						<g>
							<polygon class="st1" points="19.5,5.4 19.8,5.5 19.5,5.5 							"/>
						</g>
						<g>
							<polygon class="st1" points="19.5,5.1 19.8,5.2 19.5,5.3 							"/>
						</g>
						<g>
							<polygon class="st1" points="19.5,4.9 19.8,4.9 19.5,5 							"/>
						</g>
						<g>
							<polygon class="st1" points="19.4,4.6 19.8,4.7 19.4,4.7 							"/>
						</g>
						<g>
							<polygon class="st1" points="19.4,4.3 19.8,4.4 19.4,4.4 							"/>
						</g>
						<g>
							<polygon class="st1" points="19.3,4 19.8,4.1 19.3,4.2 							"/>
						</g>
						<g>
							<polygon class="st1" points="19.3,3.7 19.8,3.8 19.3,3.9 							"/>
						</g>
						<g>
							<polygon class="st1" points="19.2,3.5 19.8,3.6 19.2,3.6 							"/>
						</g>
						<g>
							<polygon class="st1" points="19.2,3.2 19.8,3.3 19.2,3.3 							"/>
						</g>
						<g>
							<polygon class="st1" points="19.1,2.9 19.8,3 19.1,3.1 							"/>
						</g>
					</g>
				</g>
				<g>
					<g>
						<path class="st0" d="M19.2,6.3L19.5,6l-1.7-2.8c0,0-0.4,0.4-0.6,0.5c-0.2,0.1-0.6,0.4-0.6,0.4L19.2,6.3z"/>
						<path class="st1" d="M19.2,6.4l-2.7-2.2l0.1-0.1c0,0,0.4-0.3,0.6-0.4c0.2-0.1,0.6-0.5,0.6-0.5L17.9,3l1.8,3L19.2,6.4z
							 M16.8,4.2l2.4,2L19.4,6l-1.6-2.6c-0.1,0.1-0.4,0.4-0.5,0.5C17.2,3.9,17,4.1,16.8,4.2z"/>
					</g>
					<g>
						<g>
							<polygon class="st1" points="19,6.1 19.2,6 19.1,6.2 							"/>
						</g>
						<g>
							<polygon class="st1" points="18.8,5.9 19,5.8 18.9,6 							"/>
						</g>
						<g>
							<polygon class="st1" points="18.6,5.7 18.8,5.6 18.7,5.8 							"/>
						</g>
						<g>
							<polygon class="st1" points="18.4,5.5 18.6,5.4 18.5,5.6 							"/>
						</g>
						<g>
							<polygon class="st1" points="18.2,5.3 18.5,5.1 18.2,5.4 							"/>
						</g>
						<g>
							<polygon class="st1" points="17.9,5.1 18.3,4.9 18,5.2 							"/>
						</g>
						<g>
							<polygon class="st1" points="17.7,4.9 18.1,4.7 17.8,5 							"/>
						</g>
						<g>
							<polygon class="st1" points="17.5,4.8 17.9,4.5 17.6,4.9 							"/>
						</g>
						<g>
							<polygon class="st1" points="17.3,4.6 17.7,4.3 17.4,4.7 							"/>
						</g>
						<g>
							<polygon class="st1" points="17,4.4 17.6,4.1 17.1,4.5 							"/>
						</g>
						<g>
							<polygon class="st1" points="16.8,4.2 17.4,3.9 16.9,4.4 							"/>
						</g>
					</g>
				</g>
				<g>
					<g>
						<path class="st0" d="M19.1,6.7l0.1-0.4L16,5.2c0,0-0.1,0.6-0.1,0.8c0,0.2-0.2,0.7-0.2,0.7L19.1,6.7z"/>
						<path class="st1" d="M19.2,6.8l-3.5,0l0-0.1c0,0,0.1-0.5,0.2-0.7c0-0.2,0.1-0.8,0.1-0.8l0-0.1l3.3,1.2L19.2,6.8z M15.9,6.6
							l3.1,0l0-0.2l-2.9-1c0,0.2-0.1,0.5-0.1,0.7C16,6.2,15.9,6.5,15.9,6.6z"/>
					</g>
					<g>
						<g>
							<polygon class="st1" points="18.8,6.7 18.9,6.5 18.9,6.8 							"/>
						</g>
						<g>
							<polygon class="st1" points="18.5,6.7 18.6,6.5 18.6,6.7 							"/>
						</g>
						<g>
							<polygon class="st1" points="18.2,6.7 18.3,6.4 18.3,6.7 							"/>
						</g>
						<g>
							<polygon class="st1" points="17.9,6.7 18.1,6.4 18.1,6.7 							"/>
						</g>
						<g>
							<polygon class="st1" points="17.6,6.7 17.8,6.3 17.8,6.7 							"/>
						</g>
						<g>
							<polygon class="st1" points="17.4,6.7 17.5,6.3 17.5,6.7 							"/>
						</g>
						<g>
							<polygon class="st1" points="17.1,6.7 17.2,6.2 17.2,6.7 							"/>
						</g>
						<g>
							<polygon class="st1" points="16.8,6.7 16.9,6.2 16.9,6.7 							"/>
						</g>
						<g>
							<polygon class="st1" points="16.5,6.7 16.7,6.1 16.6,6.7 							"/>
						</g>
						<g>
							<polygon class="st1" points="16.2,6.7 16.4,6.1 16.3,6.7 							"/>
						</g>
						<g>
							<polygon class="st1" points="15.9,6.7 16.1,6.1 16.1,6.7 							"/>
						</g>
					</g>
				</g>
				<g>
					<g>
						<path class="st0" d="M19.3,7.2l-0.2-0.3L16,8c0,0,0.3,0.5,0.4,0.6c0.1,0.2,0.3,0.7,0.3,0.7L19.3,7.2z"/>
						<path class="st1" d="M16.7,9.4l-0.1-0.1c0,0-0.2-0.5-0.3-0.7C16.2,8.5,15.9,8,15.9,8l-0.1-0.1l3.3-1.2l0.3,0.5L16.7,9.4z
							 M16.1,8c0.1,0.1,0.3,0.4,0.4,0.6c0.1,0.1,0.2,0.4,0.3,0.6l2.4-2L19,7L16.1,8z"/>
					</g>
					<g>
						<g>
							<polygon class="st1" points="19.1,7.4 19,7.1 19.2,7.3 							"/>
						</g>
						<g>
							<polygon class="st1" points="18.8,7.5 18.8,7.3 18.9,7.5 							"/>
						</g>
						<g>
							<polygon class="st1" points="18.6,7.7 18.5,7.4 18.7,7.6 							"/>
						</g>
						<g>
							<polygon class="st1" points="18.4,7.9 18.3,7.6 18.5,7.8 							"/>
						</g>
						<g>
							<polygon class="st1" points="18.1,8 18,7.7 18.3,8 							"/>
						</g>
						<g>
							<polygon class="st1" points="17.9,8.2 17.8,7.8 18,8.1 							"/>
						</g>
						<g>
							<polygon class="st1" points="17.7,8.4 17.6,8 17.8,8.3 							"/>
						</g>
						<g>
							<polygon class="st1" points="17.5,8.6 17.3,8.1 17.6,8.5 							"/>
						</g>
						<g>
							<polygon class="st1" points="17.3,8.8 17.1,8.2 17.4,8.7 							"/>
						</g>
						<g>
							<polygon class="st1" points="17.1,9 16.8,8.4 17.2,8.9 							"/>
						</g>
						<g>
							<polygon class="st1" points="16.9,9.2 16.6,8.5 17,9.1 							"/>
						</g>
					</g>
				</g>
				<g>
					<g>
						<path class="st0" d="M19.7,7.4l-0.4-0.1l-1.6,2.8c0,0,0.6,0.1,0.8,0.2c0.2,0.1,0.7,0.3,0.7,0.3L19.7,7.4z"/>
						<path class="st1" d="M19.2,10.7l-0.1-0.1c0,0-0.5-0.2-0.7-0.3c-0.2-0.1-0.7-0.2-0.8-0.2l-0.1,0l1.8-3l0.5,0.2L19.2,10.7z
							 M17.9,10c0.2,0,0.5,0.1,0.6,0.2c0.1,0.1,0.4,0.2,0.6,0.2l0.6-3l-0.2-0.1L17.9,10z"/>
					</g>
					<g>
						<g>
							<polygon class="st1" points="19.7,7.7 19.5,7.5 19.7,7.5 							"/>
						</g>
						<g>
							<polygon class="st1" points="19.6,7.9 19.4,7.8 19.7,7.8 							"/>
						</g>
						<g>
							<polygon class="st1" points="19.5,8.2 19.3,8 19.6,8.1 							"/>
						</g>
						<g>
							<polygon class="st1" points="19.5,8.5 19.2,8.3 19.5,8.4 							"/>
						</g>
						<g>
							<polygon class="st1" points="19.4,8.8 19.1,8.6 19.5,8.6 							"/>
						</g>
						<g>
							<polygon class="st1" points="19.4,9 19,8.8 19.4,8.9 							"/>
						</g>
						<g>
							<polygon class="st1" points="19.3,9.3 18.9,9.1 19.4,9.2 							"/>
						</g>
						<g>
							<polygon class="st1" points="19.3,9.6 18.8,9.3 19.3,9.5 							"/>
						</g>
						<g>
							<polygon class="st1" points="19.2,9.9 18.7,9.6 19.3,9.7 							"/>
						</g>
						<g>
							<polygon class="st1" points="19.2,10.2 18.6,9.9 19.2,10 							"/>
						</g>
						<g>
							<polygon class="st1" points="19.2,10.4 18.5,10.1 19.2,10.3 							"/>
						</g>
					</g>
				</g>
				<g>
					<g>
						<path class="st0" d="M20.2,7.3l-0.4,0.1l0.6,3.2c0,0,0.5-0.2,0.7-0.3c0.2-0.1,0.7-0.2,0.7-0.2L20.2,7.3z"/>
						<path class="st1" d="M20.4,10.7l-0.6-3.4l0.5-0.2l1.8,3l-0.1,0c0,0-0.5,0.1-0.7,0.2c-0.2,0.1-0.7,0.3-0.7,0.3L20.4,10.7z
							 M20,7.5l0.6,3c0.2-0.1,0.5-0.2,0.6-0.3c0.1,0,0.4-0.1,0.6-0.2l-1.5-2.7L20,7.5z"/>
					</g>
					<g>
						<g>
							<polygon class="st1" points="20.4,7.5 20.1,7.5 20.3,7.4 							"/>
						</g>
						<g>
							<polygon class="st1" points="20.5,7.8 20.2,7.8 20.4,7.6 							"/>
						</g>
						<g>
							<polygon class="st1" points="20.6,8 20.3,8 20.6,7.9 							"/>
						</g>
						<g>
							<polygon class="st1" points="20.7,8.3 20.4,8.3 20.7,8.1 							"/>
						</g>
						<g>
							<polygon class="st1" points="20.9,8.5 20.5,8.6 20.8,8.4 							"/>
						</g>
						<g>
							<polygon class="st1" points="21,8.8 20.6,8.8 21,8.6 							"/>
						</g>
						<g>
							<polygon class="st1" points="21.2,9 20.7,9.1 21.1,8.9 							"/>
						</g>
						<g>
							<polygon class="st1" points="21.3,9.2 20.8,9.3 21.3,9.1 							"/>
						</g>
						<g>
							<polygon class="st1" points="21.5,9.5 20.9,9.6 21.4,9.4 							"/>
						</g>
						<g>
							<polygon class="st1" points="21.6,9.7 21,9.9 21.6,9.6 							"/>
						</g>
						<g>
							<polygon class="st1" points="21.8,10 21.1,10.1 21.7,9.8 							"/>
						</g>
					</g>
				</g>
				<g>
					<g>
						<path class="st0" d="M20.5,6.8l-0.2,0.3l2.6,2.1c0,0,0.2-0.5,0.4-0.7C23.3,8.4,23.6,8,23.6,8L20.5,6.8z"/>
						<path class="st1" d="M22.9,9.4l-2.7-2.2l0.3-0.5l3.3,1.2L23.7,8c0,0-0.3,0.4-0.4,0.6c-0.1,0.2-0.3,0.7-0.3,0.7L22.9,9.4z
							 M20.4,7.2l2.4,2C22.9,9,23,8.7,23.1,8.5c0.1-0.1,0.2-0.4,0.3-0.5L20.6,7L20.4,7.2z"/>
					</g>
					<g>
						<g>
							<polygon class="st1" points="20.8,7 20.6,7.1 20.7,6.9 							"/>
						</g>
						<g>
							<polygon class="st1" points="21,7.1 20.9,7.2 20.9,7 							"/>
						</g>
						<g>
							<polygon class="st1" points="21.3,7.2 21.1,7.4 21.2,7.1 							"/>
						</g>
						<g>
							<polygon class="st1" points="21.6,7.3 21.3,7.5 21.4,7.2 							"/>
						</g>
						<g>
							<polygon class="st1" points="21.8,7.4 21.6,7.7 21.7,7.3 							"/>
						</g>
						<g>
							<polygon class="st1" points="22.1,7.5 21.8,7.8 22,7.4 							"/>
						</g>
						<g>
							<polygon class="st1" points="22.4,7.6 22.1,7.9 22.2,7.5 							"/>
						</g>
						<g>
							<polygon class="st1" points="22.6,7.7 22.3,8.1 22.5,7.6 							"/>
						</g>
						<g>
							<polygon class="st1" points="22.9,7.8 22.6,8.2 22.8,7.7 							"/>
						</g>
						<g>
							<polygon class="st1" points="23.2,7.9 22.8,8.3 23.1,7.8 							"/>
						</g>
						<g>
							<polygon class="st1" points="23.5,7.9 23,8.5 23.3,7.9 							"/>
						</g>
					</g>
				</g>
				<g>
					<g>
						<path class="st0" d="M20.5,6.4l0.1,0.4l3.3,0c0,0-0.1-0.5-0.2-0.8c0-0.2-0.1-0.7-0.1-0.7L20.5,6.4z"/>
						<path class="st1" d="M20.4,6.9l-0.1-0.6l3.3-1.2l0,0.1c0,0,0,0.5,0.1,0.7c0,0.2,0.2,0.7,0.2,0.7l0,0.1L20.4,6.9z M20.6,6.4
							l0,0.2l3.1,0c0-0.2-0.1-0.5-0.2-0.6c0-0.1-0.1-0.4-0.1-0.6L20.6,6.4z"/>
					</g>
					<g>
						<g>
							<polygon class="st1" points="20.7,6.3 20.7,6.5 20.6,6.3 							"/>
						</g>
						<g>
							<polygon class="st1" points="21,6.2 21,6.4 20.9,6.2 							"/>
						</g>
						<g>
							<polygon class="st1" points="21.3,6.1 21.3,6.4 21.2,6.1 							"/>
						</g>
						<g>
							<polygon class="st1" points="21.6,6 21.5,6.3 21.4,6.1 							"/>
						</g>
						<g>
							<polygon class="st1" points="21.8,5.9 21.8,6.3 21.7,6 							"/>
						</g>
						<g>
							<polygon class="st1" points="22.1,5.9 22.1,6.2 22,5.9 							"/>
						</g>
						<g>
							<polygon class="st1" points="22.4,5.8 22.4,6.2 22.2,5.8 							"/>
						</g>
						<g>
							<polygon class="st1" points="22.6,5.7 22.6,6.2 22.5,5.7 							"/>
						</g>
						<g>
							<polygon class="st1" points="22.9,5.6 22.9,6.1 22.8,5.6 							"/>
						</g>
						<g>
							<polygon class="st1" points="23.2,5.4 23.2,6.1 23,5.5 							"/>
						</g>
						<g>
							<polygon class="st1" points="23.4,5.3 23.5,6 23.3,5.3 							"/>
						</g>
					</g>
				</g>
				<g>
					<g>
						<path class="st0" d="M20.1,6l0.3,0.3L23,4.2c0,0-0.5-0.3-0.6-0.5c-0.2-0.1-0.5-0.5-0.5-0.5L20.1,6z"/>
						<path class="st1" d="M20.4,6.4L20,6l1.8-3l0.1,0.1c0,0,0.4,0.4,0.5,0.5C22.5,3.8,23,4.1,23,4.1l0.1,0.1L20.4,6.4z M20.2,6
							l0.2,0.2l2.4-2c-0.1-0.1-0.4-0.3-0.5-0.4c-0.1-0.1-0.3-0.3-0.5-0.4L20.2,6z"/>
					</g>
					<g>
						<g>
							<polygon class="st1" points="20.3,5.8 20.4,6 20.2,5.9 							"/>
						</g>
						<g>
							<polygon class="st1" points="20.4,5.5 20.6,5.7 20.3,5.6 							"/>
						</g>
						<g>
							<polygon class="st1" points="20.6,5.3 20.7,5.5 20.5,5.4 							"/>
						</g>
						<g>
							<polygon class="st1" points="20.7,5.1 20.9,5.3 20.6,5.2 							"/>
						</g>
						<g>
							<polygon class="st1" points="20.9,4.8 21.1,5.1 20.8,4.9 							"/>
						</g>
						<g>
							<polygon class="st1" points="21,4.6 21.3,4.9 20.9,4.7 							"/>
						</g>
						<g>
							<polygon class="st1" points="21.2,4.4 21.5,4.7 21.1,4.5 							"/>
						</g>
						<g>
							<polygon class="st1" points="21.3,4.1 21.6,4.5 21.2,4.2 							"/>
						</g>
						<g>
							<polygon class="st1" points="21.5,3.9 21.8,4.3 21.4,4 							"/>
						</g>
						<g>
							<polygon class="st1" points="21.6,3.6 22,4.1 21.5,3.7 							"/>
						</g>
						<g>
							<polygon class="st1" points="21.7,3.3 22.2,3.8 21.6,3.4 							"/>
						</g>
					</g>
				</g>
			</g>
			<polygon class="st0" points="18.7,10.7 18.5,10.6 17.7,16.3 17.8,16.4 			"/>
			<polygon class="st0" points="20.8,10.7 20.9,10.6 21.7,15.8 21.6,15.9 			"/>
			<polygon class="st0" points="18,11.9 17.9,12.6 17.8,12.6 17.9,11.9 			"/>
			<polygon class="st0" points="21.4,11.9 21.5,12.4 21.6,12.4 21.5,11.9 			"/>
		</g>
		<path class="st1" d="M29.9,16.2C29.9,16.2,29.8,16.2,29.9,16.2c-0.2,0-0.2,0-0.4,0c-0.1,0-0.1,0-0.2,0c-0.1,0-0.1,0-0.2,0
			c-0.1,0-0.2,0-0.3,0c-0.1,0-0.2,0-0.3,0c-0.1,0-0.2,0-0.3,0c-0.1,0-0.2,0-0.3,0c-0.2,0-0.5,0.1-0.7,0.1c-0.1,0-0.2,0.1-0.4,0.1
			c-0.1,0-0.2,0.1-0.4,0.1c-0.2,0.1-0.5,0.1-0.7,0.2c-0.2,0.1-0.5,0.2-0.7,0.2c-0.2,0.1-0.5,0.2-0.7,0.3c-0.2,0.1-0.4,0.2-0.6,0.3
			c-0.2,0.1-0.4,0.2-0.5,0.3c-0.1,0-0.2,0.1-0.2,0.1c-0.1,0-0.1,0.1-0.2,0.1c-0.1,0.1-0.2,0.1-0.3,0.2c-0.2,0.1-0.3,0.2-0.3,0.2
			l-0.2-0.2c0,0,0.1-0.1,0.3-0.2c0.1-0.1,0.2-0.1,0.3-0.2c0.1,0,0.1-0.1,0.2-0.1c0.1,0,0.2-0.1,0.2-0.1c0.2-0.1,0.4-0.2,0.6-0.3
			c0.2-0.1,0.4-0.2,0.6-0.3c0.2-0.1,0.5-0.2,0.7-0.3c0.2-0.1,0.5-0.2,0.7-0.2c0.2-0.1,0.5-0.1,0.8-0.2c0.1,0,0.3-0.1,0.4-0.1
			c0.1,0,0.3-0.1,0.4-0.1c0.3,0,0.5-0.1,0.7-0.1c0.1,0,0.2,0,0.3,0c0.1,0,0.2,0,0.3,0c0.1,0,0.2,0,0.3,0c0.1,0,0.2,0,0.3,0
			c0.1,0,0.2,0,0.2,0c0.1,0,0.1,0,0.2,0C29.6,16.1,29.7,16.1,29.9,16.2C29.9,16.1,29.9,16.1,29.9,16.2L29.9,16.2z"/>
		<path class="st1" d="M27.2,15.6c-0.4,0-0.8-0.1-1.2-0.1c-0.4,0-0.9,0-1.4,0c-0.5,0-1,0-1.4,0.1c-0.5,0-1,0.1-1.5,0.2
			c-0.5,0.1-1,0.2-1.5,0.3c-0.2,0.1-0.5,0.1-0.7,0.2c-0.2,0.1-0.5,0.2-0.7,0.2c-0.2,0.1-0.3,0.1-0.5,0.2c0,0-0.1,0-0.3-0.1
			c-0.1,0-0.2,0-0.4-0.1c-0.1,0-0.3,0-0.5-0.1c-0.2,0-0.4,0-0.6-0.1c-0.2,0-0.4,0-0.6-0.1c-0.4,0-0.9-0.1-1.4-0.1c-0.5,0-1,0-1.4,0
			c-0.4,0-0.9,0-1.2,0c-0.7,0-1.2,0.1-1.2,0.1l0,0.1c0,0,0.5,0,1.2,0c0.4,0,0.8,0,1.2,0c0.4,0,0.9,0,1.4,0.1c0.5,0,0.9,0.1,1.4,0.1
			c0.2,0,0.4,0.1,0.6,0.1c0.2,0,0.4,0.1,0.6,0.1c0.2,0,0.3,0.1,0.5,0.1c0,0,0.1,0,0.1,0c0,0-0.1,0-0.1,0c-0.2,0.1-0.4,0.2-0.6,0.3
			c-0.2,0.1-0.3,0.2-0.5,0.3c-0.1,0-0.2,0.1-0.2,0.1c0,0-0.1,0.1-0.1,0.1c-0.1,0-0.4-0.1-0.7-0.3c-0.1,0-0.3-0.1-0.4-0.1
			c-0.1,0-0.3-0.1-0.5-0.1c-0.2,0-0.3-0.1-0.5-0.2c-0.2,0-0.3-0.1-0.5-0.1c-0.2,0-0.3-0.1-0.5-0.1c-0.2,0-0.3-0.1-0.5-0.1
			c-0.2,0-0.3-0.1-0.5-0.1c-0.1,0-0.3-0.1-0.4-0.1c-0.3,0-0.5-0.1-0.6-0.1c-0.2,0-0.2,0-0.2,0l0,0.1c0,0-0.1,0-0.1,0l0,0.1
			c0,0,0.1,0,0.2,0.1c0.1,0.1,0.3,0.2,0.5,0.3c0.1,0.1,0.2,0.1,0.3,0.2c0.1,0.1,0.2,0.1,0.4,0.2c0.1,0.1,0.2,0.2,0.4,0.3
			c0.1,0.1,0.3,0.2,0.4,0.3c0.1,0.1,0.3,0.2,0.4,0.3c0.1,0.1,0.2,0.2,0.4,0.3c0.1,0.1,0.2,0.2,0.3,0.3c0.1,0.1,0.2,0.2,0.3,0.2
			c0.4,0.3,0.6,0.5,0.6,0.5s1.3,1.1,2.4,2.2c0,0-0.3-0.5-0.9-1.1c0.6-0.9,1.8-2.5,1.8-2.5c-0.2,0.2-1.2,1-2.1,2.1
			c-0.3-0.3-0.6-0.7-1-1c0.1-0.1,0.2-0.2,0.3-0.3c0.2-0.1,0.4-0.3,0.6-0.5c0.1-0.1,0.3-0.2,0.4-0.3c0.1,0,0.1-0.1,0.2-0.1
			c0.1,0,0.2-0.1,0.2-0.1c0.2-0.1,0.3-0.2,0.5-0.3c0.2-0.1,0.4-0.2,0.5-0.3c0.2-0.1,0.3-0.2,0.5-0.2c0,0,0,0,0,0l0,0c0,0,0,0,0.1,0
			c0.2-0.1,0.4-0.2,0.6-0.3c0.2-0.1,0.4-0.2,0.7-0.2c0.2-0.1,0.5-0.1,0.7-0.2c0.5-0.1,0.9-0.2,1.4-0.3c0.5-0.1,1-0.2,1.5-0.2
			c0.5,0,1-0.1,1.4-0.1c0.5,0,0.9,0,1.3,0c0.4,0,0.8,0,1.2,0.1c0.7,0.1,1.4,0.2,1.8,0.2c0.4,0.1,0.7,0.1,0.7,0.1l0-0.1
			C29.6,16,28.7,15.8,27.2,15.6z M15,18.6c-0.2,0.1-0.3,0.2-0.4,0.3c-0.1-0.1-0.2-0.1-0.3-0.2c-0.1-0.1-0.2-0.2-0.3-0.2
			c-0.1-0.1-0.2-0.2-0.4-0.2c-0.1-0.1-0.3-0.2-0.4-0.3c-0.1-0.1-0.3-0.2-0.4-0.3c-0.1-0.1-0.3-0.2-0.4-0.3c-0.1-0.1-0.3-0.2-0.4-0.2
			C12,17.1,11.8,17,11.7,17c-0.1-0.1-0.2-0.1-0.3-0.2c-0.2-0.1-0.4-0.2-0.5-0.3c0,0,0,0,0,0c0,0,0.1,0,0.2,0c0.2,0,0.4,0.1,0.6,0.1
			c0.1,0,0.3,0.1,0.4,0.1c0.1,0,0.3,0.1,0.5,0.1c0.2,0,0.3,0.1,0.5,0.1c0.2,0,0.3,0.1,0.5,0.2c0.2,0.1,0.3,0.1,0.5,0.2
			c0.2,0.1,0.3,0.1,0.5,0.2c0.2,0.1,0.3,0.1,0.4,0.2c0.1,0.1,0.3,0.1,0.4,0.2c0.2,0.1,0.3,0.1,0.4,0.2c0,0,0,0,0,0
			C15.4,18.3,15.2,18.5,15,18.6z"/>
		<polygon class="st1" points="13.9,15.6 13.6,15.6 13.9,14.9 14.9,14.3 15.8,14.8 16.1,15.5 15.8,15.5 15.8,16.3 13.9,16.3 		"/>
		<rect x="15.2" y="15.7" class="st0" width="0.1" height="0.6"/>
		<rect x="14.6" y="15.7" class="st0" width="0.1" height="0.6"/>
		<polygon class="st0" points="15.3,16.2 15.2,16.3 14.7,15.7 14.7,15.7 		"/>
		<polygon class="st0" points="15.2,15.7 15.2,15.7 14.7,16.3 14.6,16.2 		"/>
		<rect x="15.2" y="14.8" class="st0" width="0" height="0.2"/>
		<polygon class="st0" points="15.3,15 15.2,15.1 15,14.8 15,14.8 		"/>
		<polygon class="st0" points="15.2,14.8 15.2,14.8 15,15 15,15 		"/>
		<rect x="14.7" y="14.8" class="st0" width="0" height="0.2"/>
		<polygon class="st0" points="14.8,15 14.8,15.1 14.5,14.8 14.6,14.8 		"/>
		<polygon class="st0" points="14.7,14.8 14.8,14.8 14.6,15 14.6,15 		"/>
		<polygon class="st0" points="14.3,15.5 15.8,15.5 15.8,15.4 14.3,15.5 		"/>
		<polygon class="st0" points="15.4,15.9 15.9,16 15.9,15.9 15.4,15.9 		"/>
		<polygon class="st0" points="14.4,16.1 13.9,16.1 13.9,16.1 14.4,16.1 		"/>
		<polygon class="st0" points="15.8,15.8 15.3,15.8 15.3,15.7 15.8,15.7 		"/>
		<polygon class="st0" points="16.1,15.5 15.7,14.9 14.9,14.4 15.7,14.9 15.9,15.4 		"/>
		<path class="st0" d="M15.5,15.7h-0.3C15.2,15.7,15.4,15.7,15.5,15.7z"/>
		<polygon class="st0" points="15.3,15.6 13.8,15.7 13.8,15.6 15.3,15.6 		"/>
		<path class="st0" d="M14.1,16h0.3C14.4,16,14.2,16,14.1,16z"/>
		<path class="st0" d="M15.8,15.1l-0.5,0C15.3,15.1,15.7,15.1,15.8,15.1z"/>
		<path class="st0" d="M15.1,14.7l-0.2,0C15,14.7,15.1,14.7,15.1,14.7z"/>
		<path class="st0" d="M15,15.1l-0.2,0C14.8,15.1,14.9,15.1,15,15.1z"/>
		<path class="st0" d="M15.9,15.3l-0.5,0C15.4,15.3,15.8,15.3,15.9,15.3z"/>
		<polygon class="st0" points="13.6,15.5 13.9,14.8 14.9,14.4 14,14.9 13.8,15.4 		"/>
		<path class="st0" d="M13.9,15.1l0.6,0C14.4,15.1,14,15.1,13.9,15.1z"/>
		<path class="st0" d="M13.7,15.3l0.5,0C14.3,15.3,13.9,15.3,13.7,15.3z"/>
		<path class="st0" d="M14,15.8l0.5,0C14.6,15.8,14.2,15.8,14,15.8z"/>
		<path class="st0" d="M15.4,16.1l0.5,0C15.9,16.1,15.5,16.1,15.4,16.1z"/>
		<path class="st0" d="M14.7,15.7v0.6C14.7,16.3,14.7,15.9,14.7,15.7z"/>
		<g>
			<path class="st1" d="M14.3,30.9c-0.5,0-1,0-1.5,0.1c0,0.3,0,0.6,0.1,0.9c0.4,0,0.8,0,1.2-0.1c0,0.2,0,0.3,0,0.5
				c-0.4,0-0.8,0-1.2,0.1c0,0.5,0.1,0.9,0.1,1.4c-0.2,0-0.3,0-0.5,0c0-0.5-0.1-0.9-0.1-1.4c-0.1-0.1-0.2-0.1-0.3-0.2
				c0.1-0.1,0.2-0.2,0.3-0.3c0-0.5-0.1-1-0.1-1.4c0.7,0,1.4-0.1,2-0.1C14.3,30.6,14.3,30.7,14.3,30.9z"/>
			<path class="st1" d="M17.9,33.6c-0.2,0-0.3,0-0.5,0c-0.1-0.3-0.2-0.5-0.3-0.8c-0.5,0-0.9,0-1.4,0c-0.1,0.3-0.2,0.6-0.3,0.8
				c-0.2,0-0.3,0-0.5,0c0.2-0.5,0.3-1,0.5-1.4c-0.1-0.1-0.2-0.2-0.2-0.2c0.1-0.1,0.3-0.1,0.4-0.2c0.2-0.5,0.3-1,0.5-1.5
				c0.2,0,0.3,0,0.5,0C17,31.4,17.5,32.5,17.9,33.6z M16.9,32.3c-0.2-0.5-0.4-0.9-0.5-1.4c-0.2,0.5-0.3,0.9-0.5,1.4
				C16.2,32.4,16.6,32.3,16.9,32.3z"/>
			<path class="st1" d="M20.9,33.6c-0.2,0-0.4,0-0.5,0c-0.2-0.5-0.5-0.9-0.7-1.4c-0.2,0-0.4,0-0.6,0c0,0.5,0,0.9,0,1.4
				c-0.2,0-0.3,0-0.5,0c0-0.5,0-0.9,0-1.4c-0.1-0.1-0.2-0.2-0.3-0.2c0.1-0.1,0.2-0.2,0.3-0.2c0-0.5,0-1,0-1.4c0.6,0,1.1,0,1.7,0
				c0.2,0.2,0.4,0.4,0.6,0.6c0,0.2,0,0.4,0,0.7c-0.2,0.2-0.4,0.4-0.6,0.6C20.4,32.7,20.7,33.2,20.9,33.6z M20.3,31.4
				c0-0.1,0-0.2,0-0.3c-0.1-0.1-0.2-0.2-0.3-0.3c-0.3,0-0.6,0-0.9,0c0,0.3,0,0.6,0,1c0.3,0,0.6,0,0.9,0
				C20.1,31.6,20.2,31.5,20.3,31.4z"/>
			<path class="st1" d="M25,32.1c-0.1,0.1-0.2,0.2-0.3,0.2c0,0.5,0,0.9-0.1,1.4c-0.2,0-0.3,0-0.5,0c0-0.8,0.1-1.6,0.1-2.5
				c-0.3,0.5-0.6,1-0.9,1.5c-0.2,0-0.3,0-0.5,0c-0.3-0.5-0.5-1-0.8-1.5c0,0.8,0,1.6,0,2.5c-0.2,0-0.3,0-0.5,0c0-0.5,0-0.9,0-1.4
				c-0.1-0.1-0.2-0.2-0.3-0.2c0.1-0.1,0.2-0.2,0.3-0.2c0-0.5,0-1,0-1.4c0.2,0,0.4,0,0.5,0c0.3,0.6,0.7,1.3,1,1.9
				c0.4-0.6,0.7-1.2,1.1-1.8c0.2,0,0.4,0,0.5,0c0,0.5,0,1-0.1,1.4C24.8,31.9,24.9,32,25,32.1z"/>
			<path class="st1" d="M27.8,33.3c-0.2,0.2-0.4,0.3-0.7,0.5c-0.4,0-0.8,0-1.1-0.1c-0.2-0.2-0.4-0.4-0.6-0.6c0-0.2,0-0.4,0-0.6
				c0.2,0,0.3,0,0.5,0c0,0.1,0,0.2,0,0.4c0.1,0.1,0.2,0.2,0.3,0.3c0.2,0,0.5,0,0.7,0c0.1-0.1,0.2-0.2,0.4-0.3c0-0.1,0-0.2,0-0.4
				c-0.1-0.1-0.2-0.2-0.3-0.3c-0.3,0-0.6,0-0.9,0c-0.2-0.2-0.4-0.4-0.6-0.6c0-0.3,0-0.5,0-0.8c0.2-0.2,0.4-0.4,0.7-0.5
				c0.4,0,0.7,0,1.1,0.1c0.2,0.2,0.4,0.4,0.6,0.6c0,0.2,0,0.4,0,0.6c-0.2,0-0.3,0-0.5,0c0-0.1,0-0.2,0-0.3c-0.1-0.1-0.2-0.2-0.3-0.3
				c-0.2,0-0.5,0-0.7,0c-0.1,0.1-0.2,0.2-0.3,0.3c0,0.1,0,0.2,0,0.3c0.1,0.1,0.2,0.2,0.3,0.3c0.3,0,0.6,0,0.9,0
				c0.2,0.2,0.4,0.4,0.6,0.6C27.9,32.8,27.8,33,27.8,33.3z"/>
		</g>
		<g>
			<path class="st1" d="M8.4,32.1L8.4,32.1L8.5,32l0-1l-0.1,0l0,0l0.6,0l0,0.3l-0.1,0L8.8,31l-0.2,0l0,0.4l0.2,0l0-0.1l0.1,0l0,0.3
				l-0.1,0l-0.1-0.1l-0.2,0l0,0.4c0,0,0,0,0,0.1l0,0l0.3,0L9,31.8l0.1,0l0,0.3L8.4,32.1z"/>
			<path class="st1" d="M9.5,31.9c0.1,0,0.1-0.1,0.1-0.1l0-0.1c0-0.2-0.4-0.1-0.5-0.4l0-0.1c0-0.2,0.1-0.3,0.3-0.3
				c0.1,0,0.1,0,0.2,0.1l0,0l0-0.1l0.1,0c0,0.1,0,0.2,0,0.3l-0.2,0l0-0.1c0-0.1-0.1-0.1-0.1-0.1c-0.1,0-0.1,0.1-0.1,0.1l0,0.1
				c0,0.2,0.4,0.1,0.5,0.4l0,0.1c0,0.2-0.2,0.3-0.3,0.3c-0.2,0-0.3-0.1-0.3-0.3l0-0.1l0.2,0l0,0.1C9.4,31.9,9.5,32,9.5,31.9z"/>
			<path class="st1" d="M10.4,30.9c0,0.3,0,0.7,0,1l0.1,0.1l0,0.1c-0.1,0-0.2,0-0.3,0l0-0.1l0.1-0.1c0-0.3,0-0.7,0-1l-0.1,0l0,0.2
				l-0.1,0l0-0.3c0.2,0,0.5,0,0.7,0l0,0.3l-0.1,0l-0.1-0.2L10.4,30.9z"/>
		</g>
		<g>
			<path class="st1" d="M29.5,31.6l0.1-0.2l0.1,0l0,0.3c-0.2,0-0.4,0-0.7,0l0-0.1c0-0.5,0.5-0.6,0.5-1c0-0.1,0-0.2-0.1-0.2
				c-0.1,0-0.1,0.2-0.1,0.2l-0.2,0c0-0.2,0.1-0.4,0.3-0.4c0.2,0,0.3,0.1,0.3,0.3c0,0.4-0.5,0.5-0.5,0.9L29.5,31.6z"/>
			<path class="st1" d="M30.2,30.4c0.2,0,0.4,0.1,0.3,0.4l0,0.7c0,0.2-0.2,0.4-0.4,0.3c-0.2,0-0.4-0.2-0.3-0.4l0-0.7
				C29.9,30.6,30,30.4,30.2,30.4z M30,31.4c0,0.1,0,0.2,0.2,0.2c0.1,0,0.2-0.1,0.2-0.2l0-0.7c0-0.1,0-0.2-0.2-0.2
				c-0.1,0-0.2,0.1-0.2,0.2L30,31.4z"/>
			<path class="st1" d="M30.9,30.6l-0.1,0l0-0.1c0.1,0,0.2,0,0.3,0c0,0.4,0,0.8-0.1,1.2l0.1,0.1l0,0.1c-0.1,0-0.3,0-0.4,0l0-0.1
				l0.1-0.1C30.9,31.3,30.9,31,30.9,30.6z"/>
			<path class="st1" d="M31.8,31.7l0.1-0.2l0.1,0l0,0.3c-0.2,0-0.4,0-0.7,0l0-0.1c0-0.5,0.5-0.6,0.5-1c0-0.1,0-0.2-0.1-0.2
				c-0.1,0-0.1,0.2-0.1,0.2l-0.2,0c0-0.2,0.1-0.4,0.3-0.4c0.2,0,0.3,0.1,0.3,0.3c0,0.4-0.5,0.5-0.5,0.9L31.8,31.7z"/>
		</g>
		<path class="st1" d="M31.8,32.4c0,0-0.2,0-0.4-0.1c-0.3,0-0.6-0.1-0.9-0.1c-0.2,0-0.3,0-0.5-0.1c-0.2,0-0.3,0-0.4,0
			c-0.3,0-0.4,0-0.4,0s0.2,0,0.4,0c0.1,0,0.3,0,0.4,0c0.2,0,0.3,0,0.5,0c0.3,0,0.7,0,0.9,0c0.3,0,0.4,0,0.4,0L31.8,32.4z"/>
		<g>
			<path class="st1" d="M10.1,27.3c0.1,1-0.4,1.6-1.3,1.7c-0.9,0.1-1.5-0.5-1.6-1.4c-0.1-1-0.2-2-0.4-3c-0.1-1,0.4-1.7,1.3-1.8
				c0.9-0.1,1.6,0.5,1.7,1.4C9.9,25.3,10,26.3,10.1,27.3z M7.9,27.5c0.1,0.7,0.3,1,0.8,0.9c0.5-0.1,0.7-0.5,0.6-1.1
				c-0.1-1-0.2-2-0.3-3c-0.1-0.6-0.3-1-0.9-0.9c-0.5,0.1-0.7,0.4-0.6,1.1C7.7,25.5,7.8,26.5,7.9,27.5z"/>
			<path class="st1" d="M12.9,26.7c-0.2-0.5-0.3-0.6-0.8-0.5c0,0.5,0.1,1.4,0.1,2c0.1,0.1,0.2,0.2,0.3,0.2c0,0.1,0,0.2,0,0.2
				c-0.4,0-1,0.1-1.4,0.1c0-0.1,0-0.2,0-0.2c0.1-0.1,0.2-0.2,0.3-0.3c-0.1-1.7-0.3-3.4-0.4-5c-0.1-0.1-0.2-0.1-0.3-0.2
				c0-0.1,0-0.2,0-0.2c0.5,0,1-0.1,1.6-0.1c0.8-0.1,1.5,0.3,1.6,1.3c0,0.3,0,0.5,0,0.8c0,0.7-0.3,1.2-0.8,1.3
				c0.2,0.1,0.3,0.3,0.4,0.5c0.1,0.4,0.3,0.7,0.4,1.1c0.1,0.2,0.2,0.6,0.5,0.5c0,0.1,0,0.2,0,0.3c-0.1,0.1-0.4,0.1-0.5,0.1
				c-0.5,0-0.5-0.4-0.7-0.8C13.2,27.4,13,27,12.9,26.7z M11.9,23.1c0.1,0.9,0.1,1.6,0.2,2.5c0.2,0,0.3,0,0.5,0
				c0.5,0,0.7-0.4,0.6-0.9c0-0.3,0-0.5-0.1-0.8c0-0.5-0.2-0.9-0.8-0.8C12.2,23.1,12.1,23.1,11.9,23.1z"/>
			<path class="st1" d="M16.1,26.9c0,0.7,0.3,1,0.7,1c0.5,0,0.7-0.4,0.7-0.9c0-0.2,0-0.4,0-0.7c-0.1-0.1-0.3-0.2-0.4-0.3
				c0-0.1,0-0.2,0-0.3c0.4,0,0.8,0,1.2,0c0,0.9,0,1.7,0,2.6c-0.2,0-0.3,0-0.5,0c0-0.1-0.1-0.3-0.1-0.4c-0.2,0.4-0.5,0.5-0.9,0.5
				c-0.9,0-1.5-0.5-1.5-1.5c0-1-0.1-2-0.1-2.9c-0.1-1.1,0.7-1.6,1.4-1.6c0.3,0,0.7,0.1,0.9,0.3c0,0,0,0,0,0c0-0.1,0-0.2,0.1-0.3
				c0.2,0,0.4,0,0.5,0c0,0.6,0,1.1,0,1.7c-0.3,0-0.5,0-0.8,0c0-0.2,0-0.3,0-0.5c0-0.5-0.4-0.7-0.7-0.7c-0.4,0-0.7,0.3-0.7,1.1
				C16,24.9,16.1,25.9,16.1,26.9z"/>
			<path class="st1" d="M19.8,27.9c0.1,0.1,0.2,0.1,0.3,0.2c0,0.1,0,0.2,0,0.3c-0.3,0-0.7,0-1,0c0-0.1,0-0.2,0-0.3
				c0.1-0.1,0.2-0.1,0.3-0.2c0.4-1.8,0.8-3.8,1.2-5.6c0.3,0,0.5,0,0.8,0c0.4,1.9,0.8,3.7,1.1,5.6c0.1,0.1,0.2,0.1,0.3,0.2
				c0,0.1,0,0.2,0,0.3c-0.4,0-0.9,0-1.3,0c0-0.1,0-0.1,0-0.2c0.1-0.1,0.2-0.1,0.3-0.2c-0.1-0.4-0.1-0.8-0.2-1.2c-0.5,0-0.9,0-1.4,0
				C19.9,27.1,19.8,27.5,19.8,27.9z M20.1,26.2c0.4,0,0.8,0,1.2,0c-0.2-1-0.4-1.9-0.6-2.9c0,0,0,0,0,0
				C20.5,24.3,20.3,25.2,20.1,26.2z"/>
			<path class="st1" d="M24.4,28.1c0,0.1,0,0.2,0,0.3c-0.4,0-0.8,0-1.1,0c0-0.1,0-0.2,0-0.3c0.1-0.1,0.2-0.1,0.3-0.2
				c0.1-1.7,0.1-3.4,0.2-5c-0.1-0.1-0.2-0.2-0.3-0.2c0-0.1,0-0.2,0-0.2c0.4,0,0.5,0,0.9,0c0.3,0,0.4,0.1,0.5,0.4
				c0.2,0.9,0.4,1.8,0.6,2.7c0.1,0.6,0.2,1.1,0.2,1.7c0,0,0,0,0,0c0-0.4,0-1,0.1-1.4c0.1-0.9,0.1-1.8,0.2-2.8
				c-0.1-0.1-0.2-0.2-0.3-0.2c0-0.1,0-0.2,0-0.3c0.4,0,0.8,0,1.1,0.1c0,0.1,0,0.2,0,0.3c-0.1,0.1-0.2,0.1-0.3,0.2
				c-0.1,1.8-0.2,3.7-0.3,5.5c-0.2,0-0.4,0-0.6,0c-0.2,0-0.3-0.1-0.3-0.3c-0.3-1.6-0.6-3.2-1-4.8c0,0,0,0,0,0c0,0.3,0,0.6,0.1,0.9
				c-0.1,1.2-0.1,2.5-0.2,3.7C24.2,28,24.3,28.1,24.4,28.1z"/>
			<path class="st1" d="M28.4,28.2c0.1,0.1,0.2,0.2,0.3,0.3c0,0.1,0,0.2,0,0.2c-0.4,0-1-0.1-1.4-0.1c0-0.1,0-0.2,0-0.2
				c0.1-0.1,0.2-0.2,0.3-0.2c0.1-1.7,0.3-3.3,0.4-5c-0.1-0.1-0.2-0.2-0.3-0.2c0-0.1,0-0.2,0-0.2c0.5,0,0.9,0.1,1.4,0.1
				c0,0.1,0,0.2,0,0.2c-0.1,0.1-0.2,0.1-0.3,0.2C28.7,24.8,28.5,26.5,28.4,28.2z"/>
			<path class="st1" d="M33.1,24.8c-0.3,0-0.5-0.1-0.8-0.1c0-0.1,0-0.1,0-0.2c0.1-0.5,0-1-0.6-1.1c-0.4,0-0.7,0.2-0.8,0.9
				c0,0.4-0.3,2.6-0.3,3c-0.1,0.7,0.1,1,0.6,1.1c0.5,0.1,0.7-0.3,0.8-0.9c0-0.1,0-0.2,0-0.3c0.3,0,0.5,0.1,0.8,0.1
				c0,0.1,0,0.2,0,0.3c-0.1,1.1-0.8,1.4-1.6,1.3c-0.8-0.1-1.4-0.7-1.3-1.7c0-0.4,0.3-2.6,0.3-3c0.1-1,0.7-1.5,1.6-1.4
				c0.3,0,0.7,0.2,0.9,0.5c0,0,0,0,0,0c0-0.1,0.1-0.2,0.1-0.3c0.2,0,0.4,0,0.5,0.1C33.2,23.7,33.2,24.2,33.1,24.8z"/>
		</g>
		<g>
			<path class="st1" d="M27.7,18.6C27.8,18.4,27.7,18.6,27.7,18.6L27.7,18.6z"/>
			<path class="st1" d="M23.1,20C23.1,20,23.1,20,23.1,20C23,20,22.9,20,23.1,20z"/>
			<path class="st1" d="M28.9,15.8c0,0-0.1,0.2-0.1,0.5C28.8,16.1,28.9,16,28.9,15.8C28.9,15.9,28.9,15.8,28.9,15.8z"/>
			<path class="st1" d="M28.3,18C28.3,18,28.3,18,28.3,18C28.4,18,28.3,18,28.3,18z"/>
			<path class="st1" d="M30.3,16.1c0-0.1-0.5-0.2-0.5-0.2s0,0.2,0.2,0.4c0.2,0.3,0,0.7-0.2,0.8c-0.3,0.2-0.4-0.5-0.4-0.5
				c0-0.1,0-0.2-0.1-0.3c-0.1-0.5-0.2-0.9-0.5-1.3c-0.1-0.1-0.1-0.2-0.1-0.3c-0.1-0.1-0.2-0.3-0.4-0.4c-0.1-0.1-0.2-0.1-0.3-0.2
				c-0.3-0.1-0.6-0.2-0.9-0.2c-0.4,0-0.8-0.1-1.2-0.1c-0.2,0-0.2-0.1-0.7-0.1c-0.2,0-0.7,0-0.9,0c-0.3,0-0.5,0-0.9,0.1
				c-0.2,0.1-0.7,0.3-0.8,0.1c-0.2,0.1-0.5,0.2-0.7,0.4c-1,0.7-1.5,1.9-2,3c-0.1,0.1-0.1,0.3-0.2,0.4c-0.1-0.1-0.3-0.5-0.4-0.3
				c-0.2,0.1-0.3,0.6-0.1,0.8c0,0.1-0.1,0.2-0.1,0.3c-0.1,0.1,0,0.3,0,0.4c0,0.3-0.2,0.5-0.2,0.8c0,0,0,0,0,0c0,0.1,0,0.3,0.1,0.4
				c0.3-0.2,0.2,0.1,0.3,0.1c0.4,0,0.5,0,0.9-0.1c0-0.1,0.1-0.1,0-0.1c0.3-0.4,0.7-0.9,1-1.3c0.2-0.2,0.3,0,0.5,0.1
				c0.1,0.1,0.3,0,0.4-0.1c0.2,0.2-0.1,0.3-0.1,0.5c0,0.3,0,0.5-0.2,0.8c-0.1,0.3-0.1,0.2,0.1,0.4c0.2,0.1,0.4,0.1,0.5-0.1
				c-0.4-0.1,0.1-0.1,0.2-0.1c0.2,0,0.4,0,0.6,0.1c0.3,0,0.9,0.3,1.1,0.1c0.2-0.1,0.1-0.1,0.3,0c0.1,0,0.4,0,0.5-0.1
				c0.2,0,0.5-0.1,0.7-0.1c0.2,0,0.5,0.1,0.7,0c-0.2-0.1-0.5-0.1-0.8-0.1c-0.3,0-0.1,0-0.4,0c-0.3,0-0.7-0.1-0.9,0
				c-0.1,0-0.2,0-0.3,0c-0.2-0.1-0.2,0.1-0.3-0.2c-0.1-0.4,0-0.7,0-1.1c0-0.2,0.1-0.5,0.1-0.7c0.1,0,0.2,0,0.3,0
				c0.2,0,0.5,0,0.7,0.1c0.4,0,1,0.2,1.3,0c0.1,0.6,0.4,1.2,0.4,1.8c0,0.2-0.2,0.4-0.1,0.6c0,0.2,0,0.3-0.1,0.4
				c0.3-0.1,0.5-0.1,0.8-0.1c0.4,0,0.7,0,1,0c0.2,0,0.2-0.1,0.4-0.1c0.2,0,0.1,0.1,0.3,0c0.2-0.1,0.5,0,0.5-0.2
				c-0.3,0-1.8,0-1.7-0.4c0.1-0.6,0.4-1.1,0.2-1.7c0,0-0.1-0.1,0-0.1c0.1-0.1,0.4-0.4,0.7-1.4c0-0.2,0.1-0.4,0.2-0.6
				c0.1-0.3,0-0.5,0-0.5s0,0,0,0c0,0,0,0,0,0c0.1,0.3,0.2,0.6,0.2,0.9c0.1,0.4,0,0.8,0.6,0.7c0.3-0.1,0.3-0.5,0.4-0.6
				c0.1-0.2,0.2-0.2,0.3-0.3C30.5,16.3,30.3,16.2,30.3,16.1z M23.1,20C23.1,20,23.1,20,23.1,20c-0.3,0-0.5,0-0.8,0
				c0-0.2,0-0.4,0.1-0.6c0-0.2,0.2-0.3,0.2-0.4c0-0.3,0.5-0.4,0.7-0.6c0,0.4,0.1,0.7,0.2,1.1C23.7,19.9,23.5,20,23.1,20z M27.3,20.3
				c-0.1-0.3,0.1-0.6,0.1-0.9C27.6,19.6,27.5,20.1,27.3,20.3z M27.7,18.6c-0.1,0,0-0.4,0-0.5c0.1,0,0.1,0,0.2,0
				C27.9,18.3,27.8,18.4,27.7,18.6z"/>
			<path class="st0" d="M28,14.3c0,0-3.1-0.4-4.1-0.3c-1.9,0.2-1.9,1-1.9,1S23.6,13.9,28,14.3z"/>
			<path class="st0" d="M24,18.1C24,18.1,23.9,18.1,24,18.1c0,0.2-0.2,0.5-0.1,0.8c0,0.2,0,0.4,0,0.5c0,0,0,0,0,0c0-0.1,0-0.3,0-0.4
				c0,0,0,0,0,0c0,0,0,0,0,0c0-0.1,0-0.1,0-0.2c0-0.1,0-0.3,0-0.4C24,18.2,24,18.1,24,18.1z"/>
			<path class="st0" d="M30.2,16.3c0-0.1-0.1-0.1-0.1-0.1c0,0,0,0,0,0C30.1,16.2,30.1,16.2,30.2,16.3c0,0.1,0,0.1,0,0.2c0,0,0,0,0,0
				C30.3,16.4,30.2,16.3,30.2,16.3z"/>
			<path class="st0" d="M21.4,15.3c0-0.1,0.1-0.2,0.1-0.4c0,0,0,0,0,0c-0.1,0.3-0.2,0.6-0.5,0.8c-0.1,0.1-0.2,0.3-0.3,0.4
				c-0.2,0.3-0.2,0.7-0.2,1c0,0,0.1,0,0.1,0c0.1-0.4,0.2-0.8,0.4-1.2C21.1,15.8,21.3,15.6,21.4,15.3c-0.1,0.2-0.2,0.4-0.3,0.6
				c0,0,0,0,0,0C21.2,15.7,21.3,15.5,21.4,15.3C21.4,15.3,21.4,15.3,21.4,15.3z"/>
			<path class="st0" d="M27.9,14.3C27.9,14.3,27.9,14.3,27.9,14.3c0.1,0.1,0.2,0.2,0.4,0.3c0.2,0.2,0.2,0.4,0.3,0.6c0,0,0,0,0,0
				C28.7,14.8,28.3,14.5,27.9,14.3z"/>
			<path class="st0" d="M27.2,19.2c0.2-0.3,0.3-0.8,0-1.1c0,0,0,0,0,0c0.2,0.3,0,0.8-0.1,1.1C27.1,19.3,27.1,19.3,27.2,19.2
				c-0.1,0.2-0.1,0.3-0.1,0.4c0,0.2-0.1,0.4-0.1,0.5c0,0,0,0,0.1,0C27.4,20,27.3,19.5,27.2,19.2C27.2,19.2,27.2,19.2,27.2,19.2z"/>
			<path class="st0" d="M27.9,18.5C27.9,18.5,27.9,18.5,27.9,18.5c0,0.2,0,0.4,0.1,0.7c0,0,0,0,0,0C28,18.9,28,18.7,27.9,18.5z"/>
			<path class="st0" d="M19,19.1c-0.1,0.2-0.4,0.5-0.3,0.7c0,0,0,0,0,0c0-0.1,0-0.2,0.1-0.3C19,19.4,19,19.2,19,19.1
				C19.1,19.1,19,19.1,19,19.1z"/>
			<path class="st0" d="M19.4,18c0,0,0-0.1-0.1-0.1c0,0-0.1,0-0.1,0c0,0,0,0.1-0.1,0.1c0,0.1,0,0.2,0,0.3c0,0,0,0,0,0
				c0,0,0-0.1,0-0.1c0-0.1,0-0.1,0-0.1c0,0,0,0,0,0c0,0,0,0,0,0c0,0,0,0,0.1,0C19.3,18,19.3,18,19.4,18C19.4,18,19.4,18,19.4,18
				C19.4,18,19.4,18,19.4,18z"/>
			<path class="st0" d="M28.6,16.1C28.6,16.1,28.6,16.1,28.6,16.1c0,0.7-0.5,1.3-0.7,2c0,0,0,0,0,0C28.3,17.6,28.6,16.8,28.6,16.1z"
				/>
			<path class="st0" d="M20.3,17.6C20.3,17.6,20.3,17.6,20.3,17.6c0,0.1,0,0.1,0,0.1c0,0,0,0,0,0C20.3,17.7,20.3,17.7,20.3,17.6z"/>
			<path class="st0" d="M21.6,18.8c-0.2-0.4-0.7-0.4-1-0.6c0,0,0,0,0,0c0.3,0.2,0.5,0.4,0.7,0.7C21.4,19,21.6,18.9,21.6,18.8z"/>
			<path class="st0" d="M26.7,18.5c-0.1-0.2-0.3-0.4-0.4-0.6c-0.3-0.4-0.4-0.8-0.1-1.3c0,0,0,0,0,0c-0.2,0.4-0.3,0.7-0.2,1.1
				C26,18,26.3,18.4,26.7,18.5C26.6,18.6,26.7,18.6,26.7,18.5z"/>
			<path class="st0" d="M25.9,14.8c-0.4,0-0.8-0.1-1.2-0.1c-0.4,0-0.7,0-1.1,0c-0.5,0-1.4,0-1.7,0.5c0,0,0,0.1,0.1,0.1
				c0.3,0,0.5-0.2,0.8-0.3c0.3-0.1,0.6-0.1,0.9-0.1c0.3-0.1,0.7-0.1,1.1-0.1C25.1,14.7,25.5,14.8,25.9,14.8
				C25.9,14.8,25.9,14.8,25.9,14.8z"/>
			<path class="st0" d="M25.6,15.1c-0.4,0.1-1-0.1-1.4-0.2c-0.4-0.1-0.9,0.1-1.3,0.1c-0.4,0-0.7,0.1-1,0.3c0,0,0,0.1,0,0.1
				c0.9-0.1,1.8-0.3,2.7-0.2C24.8,15.2,25.6,15.4,25.6,15.1C25.6,15.2,25.6,15.1,25.6,15.1z"/>
			<path class="st0" d="M25.1,15.6c-0.5-0.3-1.3-0.1-1.9-0.2c-0.4,0-1.1-0.1-1.3,0.2c0,0,0,0.1,0.1,0.1c0.5-0.1,1-0.1,1.4-0.1
				c0.3,0,0.6,0,0.8,0c0.2,0,0.5,0.1,0.7,0c0,0,0,0,0,0C25,15.6,25.1,15.6,25.1,15.6C25.1,15.6,25.1,15.6,25.1,15.6z"/>
			<path class="st0" d="M28,14.8C28,14.7,28,14.7,28,14.8c0.2,0.9,0.1,1.6-0.1,2.5c0,0,0,0,0,0C28.6,16.4,28.4,15.4,28,14.8z"/>
			<path class="st0" d="M23.6,17.9c-0.3,0.2-0.7,0.3-1,0.4c-0.3,0.1-0.4,0-0.6-0.1c-0.2-0.1-0.3-0.2-0.4-0.3c0,0-0.1,0-0.1,0
				C21.7,18.8,23.1,18.3,23.6,17.9C23.6,17.9,23.6,17.9,23.6,17.9z"/>
			<path class="st0" d="M22.6,17.7c-0.3,0-0.5-0.1-0.7-0.2c-0.2-0.1-0.4-0.2-0.6-0.4c0,0-0.1,0,0,0C21.4,17.6,22.1,17.7,22.6,17.7
				C22.6,17.7,22.6,17.7,22.6,17.7z"/>
			<path class="st0" d="M20.5,18.8C20.5,18.8,20.5,18.8,20.5,18.8c-0.2,0.1-0.2,0.2-0.3,0.4c-0.1,0.1-0.2,0.2-0.3,0.4
				c0,0.1-0.3,0.7-0.4,0.5c0,0,0,0,0,0c0,0,0,0,0,0c0,0,0,0,0,0c0.1,0,0,0,0,0c0,0,0,0,0,0c0.3,0,0.4-0.3,0.5-0.5
				C20.2,19.4,20.8,19,20.5,18.8z"/>
			<path class="st0" d="M20.1,17.6C20.1,17.5,20.1,17.6,20.1,17.6c0-0.1-0.1-0.2-0.1-0.2c0,0,0,0,0,0c-0.1,0.1-0.1,0.1-0.1,0.2
				c0,0-0.1,0-0.1,0c-0.1,0.1,0,0.2,0.1,0.2c0.1,0,0.1,0,0.1,0c0.1,0,0.1,0.1,0.1,0c0.1,0,0.1,0,0.1-0.1
				C20.3,17.7,20.2,17.6,20.1,17.6z"/>
			<path class="st0" d="M21.2,18.1c-0.1-0.1-0.2-0.2-0.3-0.2c-0.1,0-0.1-0.1-0.2-0.1c0,0-0.1,0-0.1,0c0,0,0,0,0,0
				c0,0.1,0.1,0.1,0.2,0.2C20.9,18,21,18.1,21.2,18.1C21.2,18.2,21.2,18.1,21.2,18.1z"/>
			<path class="st0" d="M20.9,17.6C20.9,17.6,20.9,17.6,20.9,17.6c0,0,0.1,0.1,0.1,0.1c0,0,0,0,0,0C21,17.7,21,17.7,20.9,17.6z"/>
			<path class="st0" d="M21.2,17.7C21.2,17.7,21.2,17.7,21.2,17.7c0-0.1-0.1-0.1-0.1-0.1c0,0-0.1,0-0.1-0.1c0,0,0,0,0,0
				c0,0,0,0.1,0.1,0.1c0,0,0,0,0.1,0C21.1,17.7,21.1,17.7,21.2,17.7C21.1,17.7,21.2,17.7,21.2,17.7z"/>
		</g>
	</g>
</g>
</svg>
