<?xml version="1.0" encoding="UTF-8"?><svg id="Layer_1" xmlns="http://www.w3.org/2000/svg" viewBox="0 0 40 40"><defs><style>.cls-1{fill:#fff;}.cls-2{fill:#00b27c;}.cls-3{fill:#009260;}.cls-4{fill:#7a3717;}</style></defs><circle class="cls-1" cx="20" cy="20" r="20"/><path class="cls-3" d="M37.25,20c0,9.53-7.72,17.25-17.25,17.25S2.75,29.53,2.75,20H37.25Z"/><path class="cls-4" d="M40,20c0,11.05-8.95,20-20,20S0,31.05,0,20,8.95,0,20,0s20,8.95,20,20ZM20,1.56C9.81,1.56,1.56,9.81,1.56,20s8.26,18.44,18.44,18.44,18.44-8.26,18.44-18.44S30.19,1.56,20,1.56Z"/><path class="cls-2" d="M4.01,26.51l33.24-6.51L3.72,25.73c.09,.26,.19,.52,.29,.78Z"/><path class="cls-2" d="M7.77,32.17l29.48-12.17L7.2,31.57c.19,.21,.38,.41,.57,.6Z"/><path class="cls-2" d="M14.31,36.3l22.94-16.3-23.87,15.94c.3,.13,.61,.24,.93,.35Z"/><path class="cls-2" d="M23.62,36.87l13.63-16.87-14.84,17.09c.41-.06,.81-.13,1.2-.21Z"/><path class="cls-3" d="M11.61,10.46v5.55c0,.74,.2,.94,.54,.94s.54-.19,.54-.94v-5.55h1.79v5.04c0,2.15-.83,2.8-2.33,2.8s-2.33-.65-2.33-2.8v-5.04h1.79Z"/><path class="cls-3" d="M17.74,12.68v-.18c0-.45-.16-.83-.51-.83-.39,0-.56,.33-.56,.68,0,1.52,2.93,.78,2.93,3.59,0,1.64-.86,2.37-2.44,2.37-1.49,0-2.32-.57-2.32-2.16v-.27h1.74v.18c0,.66,.24,.89,.59,.89,.37,0,.58-.32,.58-.74,0-1.52-2.82-.76-2.82-3.49,0-1.55,.74-2.4,2.26-2.4s2.23,.72,2.23,2.37h-1.68Z"/><path class="cls-3" d="M20.43,10.46h2.6c2.07,0,2.18,1.83,2.18,3.84s-.11,3.84-2.18,3.84h-2.6v-7.69Zm1.79,6.25h.36c.69,0,.78-.32,.78-2.4s-.09-2.4-.78-2.4h-.36v4.8Z"/><path class="cls-3" d="M26.92,10.46h2.26l1.68,7.69h-1.91l-.18-1.35h-1.43l-.18,1.35h-1.91l1.68-7.69Zm1.14,1.57h-.02l-.49,3.26h1l-.49-3.26Z"/><path class="cls-1" d="M8.68,22.1c1.4,0,1.88,.85,1.88,3.04s-.48,3.04-1.88,3.04-1.88-.85-1.88-3.04,.48-3.04,1.88-3.04Zm0,5.05c.42,0,.46-.43,.46-2.01s-.04-2.01-.46-2.01-.46,.43-.46,2.01,.04,2.01,.46,2.01Z"/><path class="cls-1" d="M11.05,22.21h2.15c1.05,0,1.45,.66,1.45,1.56,0,.78-.27,1.29-.9,1.39v.02c.66,.07,.86,.53,.86,1.31v.5c0,.3,0,.7,.07,.81,.04,.07,.07,.13,.15,.18v.08h-1.46c-.13-.31-.13-.87-.13-1.12v-.39c0-.66-.12-.84-.45-.84h-.36v2.35h-1.37v-5.86Zm1.37,2.48h.27c.39,0,.58-.28,.58-.7,0-.48-.17-.68-.58-.68h-.27v1.38Z"/><path class="cls-1" d="M17.05,24.89h1.77v3.18h-.93l-.03-.52h-.01c-.18,.5-.67,.63-1.14,.63-1.39,0-1.52-1.11-1.52-3.04s.34-3.04,1.96-3.04c.97,0,1.67,.55,1.67,1.97h-1.33c0-.3-.02-.53-.07-.68-.05-.16-.15-.25-.32-.25-.45,0-.49,.43-.49,2.01s.04,2.01,.46,2.01c.29,0,.46-.21,.46-1.23h-.49v-1.03Z"/><path class="cls-1" d="M20.25,22.21h1.73l1.28,5.86h-1.46l-.14-1.03h-1.09l-.14,1.03h-1.46l1.28-5.86Zm.87,1.2h-.01l-.38,2.49h.77l-.38-2.49Z"/><path class="cls-1" d="M23.48,22.21h1.53l.88,3.61h.01v-3.61h1.28v5.86h-1.5l-.91-3.62h-.01v3.62h-1.28v-5.86Z"/><path class="cls-1" d="M27.8,22.21h1.37v5.86h-1.37v-5.86Z"/><path class="cls-1" d="M31.87,23.99c0-.66-.11-.86-.38-.86-.42,0-.46,.43-.46,2.01s.04,2.01,.46,2.01c.34,0,.41-.33,.41-1.44h1.33v.43c0,1.64-.86,2.04-1.74,2.04-1.54,0-1.88-.86-1.88-3.04s.46-3.04,1.88-3.04c1.24,0,1.7,.72,1.7,1.85v.37h-1.33v-.33Z"/></svg>